<?xml version="1.0" encoding="utf-8"?>
<!-- Generator: Adobe Illustrator 16.0.0, SVG Export Plug-In . SVG Version: 6.00 Build 0)  -->
<!DOCTYPE svg PUBLIC "-//W3C//DTD SVG 1.1//EN" "http://www.w3.org/Graphics/SVG/1.1/DTD/svg11.dtd">
<svg version="1.1" id="Layer_1" xmlns="http://www.w3.org/2000/svg" xmlns:xlink="http://www.w3.org/1999/xlink" x="0px" y="0px"
	 width="200px" height="41.49px" viewBox="0 0 200 41.49" enable-background="new 0 0 200 41.49" xml:space="preserve">
<g>
	<path fill="#010202" d="M168.637,15.518c-0.148,0.269-0.291,0.545-0.455,0.81c-0.348,0.559-0.699,1.115-1.062,1.662
		c-0.195,0.291-0.412,0.566-0.637,0.833c-0.344,0.412-0.701,0.808-1.061,1.209c-0.088,0.098-0.203,0.177-0.271,0.283
		c-0.621,0.916-1.59,1.274-2.553,1.675c-0.896,0.372-1.715,0.205-2.551-0.18c-0.33-0.153-0.721-0.201-1.088-0.266
		c-0.1-0.021-0.234,0.049-0.326,0.114c-0.457,0.321-0.896,0.677-1.365,0.979c-0.662,0.42-1.318,0.855-2.021,1.188
		c-0.549,0.264-1.156,0.42-1.756,0.554c-0.895,0.198-1.783-0.331-2.307-1.086c-0.51-0.737-0.92-1.516-1.16-2.382
		c-0.049-0.178-0.08-0.368-0.082-0.552c-0.008-0.894,0.049-1.791-0.018-2.68c-0.076-1.011,0.102-1.993,0.176-2.992
		c0.01-0.11-0.035-0.224-0.057-0.336c-0.094,0.042-0.215,0.061-0.285,0.131c-0.439,0.461-0.879,0.923-1.303,1.399
		c-0.438,0.497-0.875,0.992-1.271,1.522c-0.557,0.75-1.086,1.52-1.594,2.304c-0.389,0.608-0.699,1.272-1.102,1.875
		c-0.346,0.519-0.74,1.013-1.168,1.468c-0.385,0.413-0.883,0.647-1.463,0.392c-0.193-0.088-0.375-0.234-0.51-0.396
		c-0.35-0.412-0.648-0.831-0.844-1.382c-0.316-0.88-0.049-1.693,0.014-2.532c0.059-0.767,0.176-1.53,0.262-2.295
		c0.008-0.049-0.018-0.101-0.027-0.169c-0.404,0.034-0.559,0.354-0.734,0.618c-0.502,0.736-1.021,1.461-1.465,2.229
		c-0.404,0.701-0.721,1.445-1.074,2.176c-0.154,0.312-0.307,0.625-0.457,0.94c-0.254,0.535-0.506,1.067-0.762,1.607
		c-0.094,0.209-0.174,0.425-0.273,0.63c-0.32,0.653-0.678,1.286-0.965,1.95c-0.457,1.068-0.861,2.16-1.311,3.229
		c-0.17,0.398-0.27,0.803-0.348,1.225c-0.096,0.519-0.332,1.021-0.547,1.513c-0.209,0.491-0.709,0.469-1.133,0.554
		c-1.086,0.218-2.047-0.09-2.895-0.77c-0.184-0.148-0.354-0.345-0.461-0.552c-0.311-0.576-0.602-1.164-0.865-1.762
		c-0.35-0.781-0.344-1.607-0.24-2.44c0.162-1.342,0.297-2.691,0.494-4.029c0.191-1.321,0.439-2.629,0.672-3.944
		c0.078-0.43,0.168-0.855,0.258-1.282c-0.035-0.022-0.07-0.047-0.102-0.069c-0.23,0.215-0.484,0.414-0.695,0.646
		c-0.309,0.344-0.6,0.705-0.889,1.067c-0.859,1.088-1.676,2.219-2.594,3.254c-0.865,0.977-2.002,1.479-3.338,1.321
		c-0.596-0.068-1.182-0.244-1.768-0.384c-0.328-0.078-0.59,0.048-0.75,0.296c-0.617,0.963-1.561,1.567-2.383,2.312
		c-0.516,0.47-1.104,0.815-1.666,1.221c-0.186,0.139-0.443,0.165-0.668,0.248c-1.342,0.48-2.68,0.442-4.012-0.052
		c-0.451-0.17-0.898-0.359-1.342-0.557c-0.127-0.058-0.229-0.168-0.338-0.26c-0.328-0.266-0.684-0.514-0.982-0.815
		c-0.27-0.271-0.488-0.591-0.705-0.907c-0.189-0.277-0.385-0.567-0.514-0.879c-0.289-0.698-0.543-1.411-0.795-2.121
		c-0.088-0.237-0.129-0.496-0.201-0.731c-0.021-0.068-0.092-0.173-0.131-0.169c-0.076,0.013-0.154,0.066-0.207,0.132
		c-0.387,0.565-0.773,1.138-1.156,1.711c-0.041,0.063-0.08,0.137-0.113,0.203c-0.355,0.591-0.701,1.188-1.07,1.767
		c-0.35,0.55-0.684,1.11-1.104,1.605c-0.357,0.417-0.813,0.752-1.25,1.101c-0.342,0.276-0.762,0.458-0.923,0.914
		c-0.007,0.021-0.026,0.045-0.042,0.047c-0.655,0.158-1.08,0.762-1.804,0.835c-1.047,0.104-2.085,0.196-3.116-0.048
		c-0.783-0.184-1.544-0.438-2.219-0.904c-0.448-0.312-0.985-0.515-1.383-0.879c-0.538-0.494-1.01-1.072-1.458-1.653
		c-0.501-0.65-0.937-1.344-1.19-2.151c-0.25-0.812-0.43-1.627-0.409-2.482c0.007-0.636-0.035-1.274,0.007-1.909
		c0.036-0.589,0.098-1.187,0.235-1.761c0.246-1.06,0.511-2.124,0.848-3.16c0.445-1.375,1.149-2.631,2.141-3.689
		c0.569-0.606,1.295-1.023,2.099-1.283c0.033-0.01,0.066-0.03,0.095-0.025c0.566,0.133,1.068-0.194,1.614-0.245
		c0.254-0.025,0.499-0.157,0.747-0.237c0.134-0.044,0.269-0.114,0.405-0.109c0.53,0.021,1.071-0.003,1.577,0.119
		c1.075,0.266,2.223,0.357,3.127,1.115c0.418,0.353,0.846,0.699,1.244,1.072c0.275,0.259,0.346,1.404,0.064,1.585
		c-0.535,0.347-1.078,0.697-1.795,0.646c-0.585-0.039-1.183,0.043-1.77,0.102c-0.141,0.015-0.307,0.109-0.394,0.221
		c-0.268,0.343-0.533,0.692-0.744,1.072c-0.221,0.402-0.392,0.836-0.562,1.266c-0.088,0.222-0.143,0.462-0.198,0.696
		c-0.119,0.488-0.238,0.979-0.34,1.469c-0.289,1.369-0.625,2.73-0.833,4.106c-0.132,0.874-0.071,1.777-0.084,2.67
		c-0.005,0.377,0.193,0.493,0.505,0.271c0.407-0.281,0.782-0.607,1.148-0.939c0.669-0.604,1.345-1.205,1.975-1.854
		c0.624-0.635,1.195-1.323,1.787-1.994c0.371-0.417,0.746-0.833,1.102-1.266c0.219-0.27,0.406-0.566,0.598-0.856
		c0.221-0.328,0.439-0.66,0.652-0.993c0.363-0.562,0.748-1.116,1.08-1.701c0.467-0.82,0.916-1.654,1.332-2.505
		c0.225-0.458,0.393-0.952,0.531-1.448c0.303-1.08,0.49-2.203,0.879-3.247c0.266-0.692,0.414-1.405,0.615-2.106
		c0.158-0.566,0.279-1.144,0.49-1.705c0.254-0.7,0.4-1.438,0.604-2.158c0.287-1.03,0.588-2.056,0.873-3.087
		c0.061-0.212,0.17-0.328,0.396-0.303c0.719,0.068,1.348,0.254,1.75,0.947c0.172,0.3,0.5,0.515,0.74,0.777
		c0.615,0.674,1.102,1.396,0.996,2.381c-0.055,0.486-0.039,0.984-0.059,1.479c-0.004,0.109,0.002,0.222-0.025,0.327
		c-0.182,0.691-0.195,1.381-0.088,2.088c0.051,0.321,0.01,0.661-0.027,0.986c-0.07,0.613-0.15,1.226-0.244,1.835
		c-0.135,0.893-0.26,1.785-0.418,2.672c-0.213,1.212-0.492,2.417-0.686,3.632c-0.096,0.618-0.078,1.251-0.102,1.875
		c-0.045,0.975-0.115,1.951-0.115,2.927c-0.004,0.77,0.074,1.538,0.131,2.306c0.02,0.242,0.195,0.299,0.443,0.136
		c0.504-0.331,1.025-0.655,1.496-1.031c0.842-0.674,1.678-1.352,2.471-2.078c0.299-0.274,0.506-0.667,0.688-1.039
		c0.086-0.176,0.014-0.431-0.014-0.646c-0.148-1.167-0.082-2.325,0.088-3.486c0.113-0.796,0.137-1.611,0.469-2.355
		c0.338-0.752,0.713-1.489,1.084-2.226c0.053-0.104,0.148-0.217,0.256-0.256c0.564-0.211,1.137-0.506,1.725-0.58
		c0.83-0.102,1.688-0.038,2.529-0.03c0.16,0.001,0.322,0.062,0.477,0.106c0.148,0.04,0.287,0.12,0.439,0.144
		c0.863,0.135,1.381,0.744,1.484,1.613c0.129,1.087-0.172,2.09-0.467,3.109c-0.219,0.763-0.668,1.397-1.059,2.067
		c-0.104,0.18-0.156,0.386-0.262,0.565c-0.549,0.95-1.092,1.899-1.645,2.843c-0.133,0.215-0.324,0.395-0.445,0.61
		c-0.139,0.239-0.053,0.357,0.225,0.393c0.418,0.046,0.748-0.147,1.062-0.383c0.564-0.425,1.133-0.839,1.672-1.291
		c0.775-0.649,1.551-1.307,2.285-2.003c0.58-0.549,1.104-1.168,1.652-1.749c0.383-0.395,0.793-0.767,1.15-1.182
		c0.17-0.197,0.312-0.462,0.359-0.715c0.199-1.107,0.361-2.221,0.529-3.332c0.029-0.216,0.006-0.438,0.037-0.654
		c0.018-0.128,0.07-0.283,0.16-0.361c0.389-0.325,0.834-0.421,1.328-0.308c0.355,0.082,0.721,0.116,1.072,0.196
		c0.295,0.067,0.578,0.173,0.869,0.26c0.062,0.021,0.125,0.061,0.186,0.062c0.807,0.009,1.344,0.505,1.814,1.067
		c0.375,0.438,0.561,0.987,0.566,1.557c0.012,0.669-0.049,1.34-0.074,2.014c-0.004,0.167,0.029,0.333,0.039,0.5
		c0.031,0.014,0.066,0.028,0.098,0.038c0.256-0.213,0.521-0.412,0.764-0.645c0.588-0.556,1.119-1.181,1.855-1.552
		c0.389-0.192,0.791-0.409,1.209-0.488c1.268-0.245,2.521-0.282,3.736,0.297c0.494,0.234,0.871,0.536,1.17,0.979
		c0.205,0.308,0.354,0.334,0.586,0.041c0.758-0.953,1.695-1.705,2.691-2.372c0.678-0.455,1.41-0.852,2.312-0.661
		c0.613,0.131,1.246,0.148,1.863,0.247c0.781,0.123,1.508,0.953,1.562,1.737c0.08,1.152,0.176,2.308,0.244,3.458
		c0.018,0.349-0.057,0.701-0.082,1.052c-0.02,0.219-0.035,0.439-0.029,0.657c0.016,0.716,0.031,1.429,0.059,2.142
		c0.004,0.183,0.084,0.332,0.285,0.193c0.775-0.535,1.543-1.087,2.311-1.639c0.254-0.18,0.242-0.396,0.148-0.693
		c-0.488-1.529-0.871-3.076-0.504-4.702c0.068-0.292,0.107-0.585,0.15-0.882c0.141-0.901,0.512-1.677,1.219-2.266
		c0.211-0.174,0.457-0.3,0.703-0.414c0.348-0.161,0.713-0.292,1.072-0.437c0.521-0.215,1.053-0.287,1.613-0.127
		c0.393,0.111,0.803,0.152,1.115,0.458c0.197,0.193,0.42,0.371,0.592,0.587c0.211,0.265,0.391,0.558,0.574,0.848
		c0.059,0.098,0.111,0.218,0.123,0.333c0.062,0.719,0.156,1.44,0.146,2.159c-0.006,0.382-0.174,0.771-0.32,1.138
		c-0.301,0.767-0.666,1.512-0.947,2.281c-0.322,0.866-0.691,1.687-1.395,2.317c-0.047,0.045-0.088,0.096-0.129,0.148
		c-0.018,0.023-0.018,0.061-0.043,0.179c0.209-0.035,0.395-0.029,0.543-0.103c1.061-0.521,2.105-1.08,2.975-1.892
		c1.189-1.104,2.426-2.148,3.242-3.611c0.408-0.733,1.082-1.312,1.52-2.032c0.348-0.57,0.527-1.243,0.785-1.875
		c0.027-0.071,0.027-0.149,0.043-0.226c0.162-0.658,0.398-0.822,1.062-0.708c0.564,0.095,1.127,0.203,1.689,0.311
		c0.094,0.02,0.203,0.056,0.268,0.114c0.705,0.588,1.311,1.256,1.547,2.171c0.201,0.776,0.342,1.564,0.25,2.375
		c-0.01,0.089,0,0.177,0.018,0.265c0.004,0.038,0.029,0.077,0.068,0.177c0.32-0.243,0.615-0.477,0.912-0.697
		c1.082-0.804,2.045-1.77,3.254-2.385c0.424-0.216,0.914-0.305,1.381-0.425c0.955-0.245,1.898-0.105,2.84,0.123
		c0.275,0.068,0.557,0.143,0.834,0.197c0.682,0.132,1.098,0.624,1.518,1.103c0.061,0.067,0.094,0.183,0.096,0.272
		c0.023,0.788,0.141,1.57-0.014,2.365c-0.154,0.818-0.17,1.663-0.332,2.479c-0.145,0.763-0.354,1.521-0.625,2.25
		c-0.266,0.715-0.428,1.435-0.488,2.185c-0.004,0.076,0.002,0.154,0.012,0.229c0.006,0.033,0.023,0.064,0.049,0.134
		c0.35-0.19,0.695-0.362,1.029-0.561c0.354-0.209,0.695-0.423,1.035-0.65c0.543-0.368,1.111-0.716,1.611-1.139
		c0.549-0.47,1.021-1.021,1.545-1.522c0.346-0.334,0.723-0.648,1.074-0.977c0.6-0.561,1.227-1.101,1.785-1.704
		c0.328-0.357,0.17-0.837,0.062-1.266c-0.199-0.802-0.457-1.591-0.588-2.403c-0.09-0.565-0.016-1.161-0.012-1.743
		c0-0.021,0.01-0.046,0.01-0.063c-0.07-1.268,0.652-2.258,1.195-3.3c0.271-0.517,0.738-0.84,1.396-0.854
		c0.613-0.008,1.221-0.192,1.832-0.171c0.584,0.021,1.201,0.118,1.738,0.338c1.016,0.417,1.561,1.215,1.723,2.344
		c0.281,1.977-0.17,3.735-1.33,5.329c-0.406,0.562-0.861,1.086-1.279,1.642c-0.477,0.627-0.455,1.325-0.148,2.003
		c0.322,0.709,0.717,1.383,1.055,2.083c0.199,0.415,0.357,0.85,0.529,1.274c0.127,0.317,0.254,0.636,0.365,0.959
		c0.125,0.349,0.244,0.697,0.342,1.059c0.17,0.577,0.326,1.16,0.48,1.747c0.258,1.012,0.385,2.048,0.416,3.082
		c0.021,0.646-0.178,1.299-0.283,1.945c-0.018,0.096-0.08,0.189-0.092,0.284c-0.109,0.937-0.607,1.697-1.08,2.489
		c-0.355,0.59-0.861,0.971-1.344,1.417c-0.613,0.57-1.346,0.896-2.113,1.087c-0.648,0.156-1.316,0.307-2.02,0.252
		c-0.582-0.04-1.16-0.014-1.719-0.215c-0.238-0.086-0.473-0.18-0.689-0.303c-1.359-0.77-2.168-1.975-2.484-3.462
		c-0.133-0.622,0.008-1.311,0.066-1.968c0.025-0.268,0.178-0.515,0.512-0.508c0.32,0.009,0.438,0.243,0.51,0.518
		c0.088,0.316,0.094,0.707,0.291,0.926c0.359,0.393,0.834,0.688,1.266,1.021c0.039,0.029,0.109,0.048,0.156,0.038
		c0.574-0.106,1.211,0,1.711-0.384c0.562-0.43,0.947-0.977,1.131-1.694c0.217-0.879,0.119-1.746,0.08-2.625
		c-0.041-0.969,0.008-1.934-0.016-2.904c-0.02-0.635-0.082-1.271-0.145-1.906c-0.035-0.403-0.09-0.81-0.172-1.206
		c-0.084-0.421-0.219-0.473-0.547-0.189c-0.357,0.311-0.678,0.663-1.025,0.985c-1.264,1.174-2.49,2.396-3.812,3.506
		c-0.66,0.558-1.449,0.99-2.346,1.162c-0.617,0.118-1.219,0.306-1.832,0.44c-1.178,0.263-2.119-0.309-3.033-0.92
		c-0.188-0.127-0.322-0.374-0.414-0.588c-0.588-1.347-1.08-2.709-1.004-4.23c0.047-0.948,0.342-1.817,0.605-2.699
		c0.271-0.905,0.564-1.802,0.84-2.708c0.025-0.099-0.031-0.223-0.053-0.334c-0.105,0.031-0.244,0.033-0.324,0.105
		c-0.355,0.312-0.727,0.615-1.029,0.972c-0.531,0.626-1.006,1.306-1.527,1.941c-0.631,0.766-1.312,1.487-1.912,2.272
		c-0.359,0.466-0.635,1.005-0.916,1.528c-0.6,1.113-1.141,2.263-1.775,3.353c-0.908,1.553-1.846,3.071-2.525,4.745
		c-0.244,0.61-0.676,1.156-1.1,1.674c-0.42,0.509-1.045,0.646-1.66,0.447c-0.518-0.164-0.902-0.566-1.205-1.024
		c-0.137-0.211-0.27-0.432-0.395-0.65c-0.078-0.14-0.17-0.289-0.191-0.445c-0.133-0.935-0.301-1.874-0.348-2.812
		c-0.029-0.56,0.123-1.138,0.24-1.691c0.293-1.409,0.588-2.824,0.938-4.221c0.277-1.128,0.656-2.234,0.949-3.362
		c0.252-0.953,0.566-1.899,0.6-2.898c0.002-0.03-0.021-0.06-0.031-0.092C168.707,15.551,168.674,15.534,168.637,15.518z
		 M160.646,11.553c-0.045-0.073-0.092-0.268-0.209-0.32c-0.1-0.048-0.326,0.027-0.402,0.123c-0.244,0.308-0.484,0.631-0.648,0.984
		c-0.342,0.735-0.729,1.451-0.764,2.297c-0.027,0.565-0.148,1.129-0.211,1.696c-0.021,0.149-0.004,0.309,0.031,0.455
		c0.023,0.079,0.119,0.188,0.184,0.19c0.092,0.002,0.217-0.063,0.271-0.141c0.254-0.382,0.518-0.765,0.727-1.172
		c0.279-0.545,0.604-1.096,0.738-1.683C160.535,13.221,160.553,12.423,160.646,11.553z M118.525,17.447
		c0.01,0.002,0.02,0.005,0.027,0.008c0.02,0.154,0.012,0.312,0.057,0.457c0.031,0.087,0.139,0.19,0.215,0.2
		c0.082,0.009,0.189-0.078,0.258-0.15c0.082-0.087,0.133-0.198,0.189-0.304c0.422-0.81,0.896-1.598,1.24-2.434
		c0.33-0.788,0.146-1.67,0.27-2.502c0.02-0.115-0.107-0.346-0.191-0.359c-0.137-0.021-0.352,0.06-0.422,0.17
		c-0.48,0.709-0.93,1.438-1.18,2.266c-0.096,0.345-0.145,0.705-0.205,1.064C118.695,16.384,118.609,16.914,118.525,17.447z
		 M194.188,12.263c0.029,0.008,0.062,0.017,0.094,0.025c0,0.098-0.027,0.208,0.008,0.294c0.059,0.143,0.137,0.337,0.248,0.379
		c0.111,0.041,0.332-0.038,0.424-0.138c0.242-0.282,0.465-0.587,0.643-0.912c0.328-0.596,0.627-1.207,0.934-1.817
		c0.129-0.258,0.254-0.514,0.346-0.785c0.119-0.341-0.029-0.768-0.271-0.876c-0.297-0.131-1.266,0.096-1.424,0.38
		c-0.154,0.27-0.268,0.574-0.346,0.877C194.609,10.544,194.4,11.406,194.188,12.263z"/>
	<path fill="#010202" d="M49.133,14.84c-0.208,0.217-0.42,0.431-0.625,0.653c-0.513,0.571-1.042,1.131-1.525,1.729
		c-0.605,0.753-1.172,1.537-1.757,2.312c-0.184,0.245-0.387,0.479-0.548,0.74c-0.439,0.709-0.866,1.426-1.286,2.145
		c-0.264,0.449-1.123,0.789-1.645,0.742c-1.087-0.098-1.483-0.944-1.983-1.699c-0.506-0.762-0.322-1.574-0.203-2.397
		c0.125-0.858,0.173-1.729,0.245-2.595c0.008-0.113-0.022-0.23-0.04-0.386c-0.098,0.056-0.167,0.073-0.202,0.116
		c-0.454,0.61-0.906,1.22-1.352,1.836c-0.392,0.544-0.802,1.077-1.16,1.644c-0.272,0.435-0.474,0.912-0.716,1.367
		c-0.148,0.284-0.31,0.557-0.466,0.833c-0.299,0.536-0.577,1.084-0.907,1.602c-0.584,0.916-0.983,1.945-1.757,2.74
		c-0.044,0.051-0.088,0.099-0.119,0.157c-0.57,1.168-1.167,2.331-1.705,3.521c-0.28,0.615-0.445,1.279-0.679,1.921
		c-0.188,0.521-0.674,0.645-1.131,0.731c-0.663,0.12-1.333-0.012-1.935-0.253c-0.746-0.298-1.32-0.872-1.814-1.498
		c-0.171-0.215-0.216-0.521-0.323-0.794c-0.203-0.508-0.421-1.009-0.587-1.532c-0.068-0.215-0.061-0.479-0.017-0.706
		c0.337-1.729,0.695-3.452,1.045-5.179c0.022-0.097,0.002-0.206,0.002-0.305c-0.035-0.014-0.071-0.021-0.104-0.032
		c-0.065,0.115-0.156,0.221-0.195,0.34c-0.314,1.015-1.057,1.706-1.784,2.413c-0.134,0.133-0.287,0.238-0.421,0.369
		c-1.301,1.242-2.811,1.371-4.459,0.868c-0.553-0.168-1.037-0.391-1.387-0.886c-0.189-0.27-0.487-0.451-0.683-0.721
		c-0.384-0.505-0.745-1.03-1.078-1.571c-0.208-0.333-0.324-0.371-0.58-0.068c-0.51,0.603-0.861,1.296-1.234,1.985
		c-0.455,0.837-1.016,1.621-1.579,2.388c-0.387,0.531-0.774,1.062-1.333,1.455c-0.902,0.635-1.885,1.052-2.958,1.25
		c-0.358,0.068-0.744-0.015-1.117-0.031c-0.826-0.042-1.637-0.106-2.362-0.609c-0.328-0.229-0.804-0.258-1.144-0.482
		c-0.488-0.323-0.958-0.704-1.349-1.146c-0.568-0.633-1.137-1.296-1.562-2.027c-0.396-0.684-0.53-1.484-0.587-2.289
		c-0.108-1.563,0.162-3.068,0.646-4.547c0.408-1.257,0.738-2.543,1.214-3.77c0.406-1.045,0.924-2.083,1.902-2.728
		c0.664-0.443,1.403-0.783,2.138-1.093c0.726-0.302,1.486-0.545,2.246-0.749c1.263-0.339,2.499-0.812,3.839-0.75
		c1.135,0.055,2.21,0.329,3.031,1.125c0.478,0.461,0.78,1.103,1.16,1.666c0.03,0.044,0.027,0.108,0.057,0.152
		c0.086,0.134,0.177,0.265,0.267,0.396c0.106-0.1,0.231-0.184,0.316-0.297c0.567-0.767,1.797-1.112,2.793-0.823
		c0.412,0.12,0.743,0.28,1.04,0.622c0.303,0.354,0.405,0.744,0.39,1.154c-0.016,0.559-0.021,1.149-0.205,1.667
		c-0.249,0.697-0.293,1.412-0.396,2.119c-0.068,0.487-0.078,0.984-0.114,1.474c-0.037,0.625-0.108,1.252-0.112,1.876
		c0,0.526,0.065,1.055,0.132,1.578c0.031,0.238,0.18,0.277,0.333,0.119c0.368-0.377,0.75-0.741,1.093-1.139
		c0.433-0.506,0.85-1.033,1.244-1.574c0.595-0.814,1.169-1.646,1.742-2.479c0.421-0.618,0.803-1.263,1.242-1.868
		c0.477-0.66,0.935-1.349,1.517-1.908c0.835-0.802,1.34-1.757,1.655-2.843c0.185-0.632,0.365-1.27,0.587-1.893
		c0.131-0.36,0.402-0.674,0.8-0.714c0.595-0.059,1.199-0.059,1.798-0.056c0.619,0.004,1.027,0.402,1.407,0.825
		c0.171,0.188,0.299,0.417,0.483,0.584c0.317,0.289,0.412,0.636,0.385,1.042c-0.06,0.799-0.109,1.602-0.17,2.403
		c-0.053,0.702-0.12,1.4-0.172,2.104c-0.01,0.149,0.018,0.294,0.027,0.447c0.033,0.022,0.062,0.046,0.096,0.067
		c0.28-0.227,0.568-0.444,0.838-0.685c0.723-0.644,1.411-1.326,2.162-1.934c0.467-0.375,0.998-0.708,1.549-0.933
		c0.422-0.171,0.922-0.146,1.389-0.194c0.262-0.026,0.534,0.02,0.786-0.041c0.469-0.113,0.893-0.039,1.312,0.175
		c0.037,0.021,0.076,0.047,0.118,0.058c0.849,0.223,0.998,0.896,1.053,1.631c0.027,0.353,0.052,0.703,0.096,1.053
		c0.016,0.105,0.086,0.237,0.17,0.285c0.05,0.03,0.193-0.065,0.27-0.136c0.719-0.644,1.402-1.329,2.154-1.933
		c0.718-0.576,1.525-1.011,2.495-1.019c0.271,0,0.543-0.114,0.814-0.111c0.502,0.006,1.005,0.057,1.506,0.103
		c0.513,0.05,0.815,0.455,1.182,0.748c0.499,0.4,0.877,0.937,1.047,1.524c0.171,0.599,0.155,1.262,0.161,1.896
		c0.003,0.381-0.128,0.758-0.167,1.144c-0.072,0.687-0.072,1.383-0.188,2.06c-0.193,1.13-0.445,2.249-0.684,3.37
		c-0.099,0.463-0.204,0.923,0,1.476c0.177-0.179,0.336-0.308,0.458-0.459c0.432-0.543,0.834-1.108,1.287-1.637
		c0.469-0.542,0.995-1.029,1.468-1.561c0.586-0.657,1.192-1.307,1.695-2.024c0.526-0.75,0.915-1.595,1.409-2.375
		c0.54-0.855,1.154-1.663,1.681-2.526c0.246-0.405,0.392-0.883,0.538-1.34c0.243-0.754,0.46-1.517,0.672-2.28
		c0.083-0.294,0.211-0.483,0.537-0.542c0.268-0.047,0.517-0.188,0.783-0.229c0.375-0.059,0.71,0.003,0.965,0.357
		c0.262,0.369,0.678,0.594,0.91,1.021c0.43,0.799,0.585,1.615,0.492,2.513c-0.061,0.607-0.03,1.225-0.054,1.833
		c-0.017,0.53-0.009,1.061-0.063,1.583c-0.142,1.325-0.312,2.646-0.475,3.968c-0.021,0.173-0.072,0.341-0.1,0.514
		c-0.005,0.035,0.027,0.08,0.077,0.213c0.452-0.391,0.894-0.73,1.284-1.115c0.76-0.748,1.507-1.509,2.229-2.292
		c0.377-0.412,0.699-0.876,1.034-1.326c0.751-1.013,1.499-2.027,2.235-3.054c0.724-1.008,1.429-2.029,2.146-3.042
		c0.247-0.349,0.479-0.717,0.771-1.028c0.148-0.162,0.403-0.303,0.619-0.313c0.756-0.04,1.515-0.03,2.271-0.019
		c0.127,0.003,0.292,0.079,0.375,0.179c0.643,0.745,1.003,1.578,0.868,2.601c-0.125,0.938-0.187,1.879-0.291,2.822
		c-0.052,0.445-0.145,0.887-0.199,1.332c-0.05,0.403-0.054,0.812-0.113,1.213c-0.212,1.395-0.434,2.788-0.67,4.177
		c-0.216,1.267-0.463,2.527-0.694,3.793c-0.019,0.096-0.026,0.2-0.036,0.293c-0.022,0.303,0.101,0.458,0.417,0.448
		c0.379-0.01,0.758-0.047,1.125,0.006c0.663,0.093,1.32,0.229,1.972,0.374c0.235,0.051,0.414,0.189,0.357,0.502
		c-0.06,0.308-0.19,0.441-0.525,0.459c-1.042,0.048-2.081,0.14-3.125,0.205c-0.445,0.029-0.655,0.274-0.75,0.69
		c-0.184,0.772-0.39,1.54-0.589,2.308c-0.029,0.114-0.058,0.254-0.136,0.333c-0.431,0.463-0.442,1.082-0.645,1.635
		c-0.285,0.773-0.587,1.543-0.954,2.279c-0.481,0.979-0.94,1.991-1.583,2.855c-0.641,0.863-1.058,1.934-2.029,2.529
		c-0.467,0.287-0.95,0.557-1.454,0.775c-0.489,0.214-1,0.39-1.517,0.532c-0.614,0.172-1.218,0.083-1.811-0.148
		c-0.388-0.146-0.794-0.243-1.199-0.357c-0.325-0.09-0.608-0.226-0.813-0.516c-0.134-0.189-0.323-0.332-0.482-0.501
		c-0.071-0.071-0.171-0.14-0.192-0.222c-0.135-0.566-0.529-1-0.765-1.504c-0.245-0.524-0.346-1.13-0.434-1.709
		c-0.168-1.133-0.084-2.246,0.491-3.27c0.18-0.321,0.416-0.621,0.649-0.911c0.325-0.397,0.632-0.825,1.014-1.165
		c0.446-0.396,0.947-0.742,1.457-1.062c0.802-0.499,1.611-0.997,2.459-1.412c0.939-0.462,1.919-0.827,2.888-1.221
		c0.217-0.09,0.343-0.215,0.387-0.443c0.167-0.854,0.317-1.713,0.511-2.559c0.225-0.978,0.495-1.942,0.73-2.919
		c0.041-0.167,0.011-0.351,0.015-0.527c-0.126,0.118-0.266,0.225-0.375,0.36c-0.187,0.229-0.328,0.5-0.539,0.709
		c-0.471,0.457-0.731,1.083-1.301,1.476c-0.357,0.246-0.591,0.668-0.876,1.018c-0.579,0.713-1.326,1.223-2.085,1.707
		c-0.476,0.312-0.975,0.599-1.501,0.806c-0.309,0.12-0.694,0.098-1.039,0.077c-1.105-0.085-2.118-0.416-2.926-1.212
		c-0.546-0.544-0.98-1.17-1.16-1.927c-0.189-0.77-0.319-1.554-0.483-2.33c-0.025-0.104-0.096-0.206-0.147-0.305
		c-0.098,0.071-0.24,0.123-0.297,0.222c-0.301,0.521-0.565,1.071-0.876,1.587c-0.743,1.221-1.581,2.379-2.711,3.262
		c-0.67,0.521-1.354,1.059-2.22,1.272c-0.625,0.149-1.244,0.2-1.85-0.037c-0.458-0.178-0.918-0.376-1.342-0.627
		c-0.725-0.418-0.933-1.221-1.321-1.892c-0.099-0.167-0.147-0.368-0.225-0.549c-0.654-1.551-0.645-3.137-0.313-4.762
		c0.302-1.496,0.51-3.017,0.755-4.525c0.023-0.139,0.003-0.284,0.003-0.426C49.212,14.863,49.17,14.852,49.133,14.84z M7.657,25.059
		c0.067,0.152,0.114,0.257,0.16,0.361c0.091-0.049,0.205-0.088,0.27-0.154c0.603-0.64,1.198-1.286,1.792-1.936
		c0.058-0.063,0.09-0.149,0.146-0.22c0.297-0.404,0.59-0.814,0.906-1.209c0.422-0.527,0.918-1.005,1.288-1.569
		c0.455-0.692,1.05-1.293,1.371-2.083c0.154-0.379,0.458-0.695,0.688-1.046c0.295-0.449,0.289-0.445-0.084-0.828
		c-0.17-0.174-0.306-0.376-0.475-0.549c-0.173-0.18-0.338-0.402-0.556-0.506c-0.608-0.285-1.235-0.525-1.859-0.771
		c-0.233-0.092-0.458-0.038-0.59,0.167c-0.246,0.37-0.511,0.743-0.676,1.156c-0.322,0.806-0.574,1.638-0.855,2.461
		c-0.03,0.094-0.066,0.192-0.066,0.289c-0.007,1.011-0.392,1.935-0.639,2.896C8.176,22.693,7.927,23.892,7.657,25.059z M65.1,35.023
		c0,0.218-0.021,0.44,0.002,0.66c0.052,0.485,0.292,0.844,0.763,1.028c0.436,0.165,0.754-0.058,1.043-0.321
		c0.202-0.183,0.398-0.388,0.534-0.622c0.35-0.6,0.678-1.21,0.988-1.827c0.332-0.656,0.596-1.349,0.96-1.984
		c0.396-0.692,0.62-1.438,0.824-2.186c0.075-0.269-0.025-0.354-0.294-0.283c-0.104,0.025-0.211,0.063-0.308,0.118
		c-0.838,0.482-1.696,0.938-2.499,1.469c-0.461,0.308-0.919,0.687-1.227,1.133C65.32,33.037,65.073,34.006,65.1,35.023z"/>
</g>
</svg>
