<?xml version="1.0" encoding="utf-8"?>
<!-- Generator: Adobe Illustrator 16.0.0, SVG Export Plug-In . SVG Version: 6.00 Build 0)  -->
<!DOCTYPE svg PUBLIC "-//W3C//DTD SVG 1.1//EN" "http://www.w3.org/Graphics/SVG/1.1/DTD/svg11.dtd">
<svg version="1.1" id="Layer_1" xmlns="http://www.w3.org/2000/svg" xmlns:xlink="http://www.w3.org/1999/xlink" x="0px" y="0px"
	 width="219.99px" height="45.638px" viewBox="0 -8.297 219.99 45.638" enable-background="new 0 -8.297 219.99 45.638"
	 xml:space="preserve">
<g>
	<path fill="#010202" d="M185.482,8.773c-0.163,0.295-0.319,0.599-0.5,0.89c-0.383,0.614-0.77,1.226-1.17,1.827
		c-0.215,0.32-0.454,0.624-0.699,0.916c-0.378,0.453-0.773,0.889-1.167,1.33c-0.097,0.108-0.222,0.194-0.296,0.312
		c-0.686,1.006-1.751,1.402-2.81,1.842c-0.985,0.41-1.885,0.226-2.806-0.196c-0.363-0.17-0.792-0.223-1.195-0.293
		c-0.109-0.023-0.258,0.055-0.36,0.126c-0.502,0.354-0.985,0.745-1.501,1.077c-0.728,0.462-1.449,0.942-2.223,1.309
		c-0.604,0.29-1.273,0.461-1.931,0.608c-0.983,0.219-1.964-0.364-2.538-1.194c-0.561-0.812-1.012-1.668-1.275-2.621
		c-0.054-0.196-0.087-0.405-0.091-0.608c-0.009-0.981,0.053-1.969-0.018-2.946c-0.085-1.112,0.111-2.193,0.193-3.292
		c0.009-0.121-0.04-0.245-0.062-0.368c-0.104,0.046-0.236,0.066-0.313,0.143c-0.484,0.507-0.967,1.015-1.434,1.54
		c-0.481,0.546-0.963,1.09-1.399,1.673c-0.612,0.825-1.195,1.672-1.752,2.535c-0.429,0.669-0.771,1.399-1.213,2.062
		c-0.379,0.57-0.813,1.114-1.283,1.614c-0.423,0.454-0.973,0.712-1.608,0.43c-0.215-0.097-0.414-0.258-0.562-0.436
		c-0.384-0.454-0.715-0.915-0.93-1.52c-0.347-0.969-0.054-1.862,0.016-2.785c0.064-0.844,0.193-1.683,0.288-2.525
		c0.008-0.054-0.019-0.111-0.032-0.186c-0.443,0.038-0.612,0.389-0.807,0.68c-0.552,0.81-1.122,1.607-1.61,2.453
		c-0.445,0.77-0.793,1.59-1.183,2.393c-0.168,0.344-0.337,0.688-0.502,1.035c-0.279,0.589-0.556,1.175-0.837,1.768
		c-0.104,0.23-0.191,0.468-0.302,0.693c-0.352,0.719-0.745,1.415-1.06,2.146c-0.503,1.176-0.948,2.376-1.445,3.551
		c-0.186,0.438-0.292,0.882-0.378,1.345c-0.107,0.571-0.365,1.125-0.603,1.664c-0.229,0.54-0.781,0.516-1.245,0.61
		c-1.196,0.239-2.253-0.099-3.186-0.847c-0.201-0.163-0.387-0.378-0.507-0.605c-0.341-0.635-0.659-1.282-0.951-1.939
		c-0.384-0.859-0.378-1.768-0.264-2.684c0.178-1.476,0.326-2.961,0.543-4.433c0.212-1.453,0.485-2.893,0.739-4.338
		c0.086-0.473,0.185-0.941,0.283-1.41c-0.037-0.025-0.077-0.051-0.111-0.076c-0.254,0.236-0.532,0.455-0.764,0.711
		c-0.341,0.378-0.66,0.775-0.977,1.174c-0.948,1.197-1.844,2.441-2.853,3.58c-0.953,1.074-2.202,1.627-3.672,1.453
		c-0.655-0.075-1.3-0.269-1.943-0.422c-0.36-0.086-0.65,0.052-0.825,0.325c-0.679,1.059-1.716,1.725-2.621,2.543
		c-0.568,0.518-1.216,0.897-1.833,1.343c-0.202,0.152-0.488,0.181-0.736,0.273c-1.475,0.529-2.946,0.487-4.412-0.056
		c-0.496-0.188-0.988-0.397-1.475-0.613c-0.139-0.062-0.252-0.185-0.372-0.286c-0.361-0.291-0.752-0.564-1.08-0.896
		c-0.298-0.297-0.538-0.651-0.776-0.998c-0.209-0.307-0.424-0.625-0.564-0.967c-0.318-0.768-0.599-1.552-0.875-2.334
		c-0.097-0.261-0.142-0.545-0.223-0.806c-0.023-0.074-0.1-0.188-0.142-0.185c-0.084,0.013-0.173,0.074-0.229,0.145
		c-0.425,0.623-0.85,1.252-1.271,1.882c-0.048,0.07-0.088,0.15-0.126,0.224c-0.39,0.649-0.77,1.306-1.178,1.943
		c-0.383,0.604-0.752,1.221-1.212,1.766c-0.393,0.459-0.896,0.827-1.375,1.211c-0.376,0.303-0.838,0.502-1.015,1.004
		c-0.008,0.024-0.029,0.049-0.047,0.052c-0.72,0.174-1.188,0.838-1.984,0.918c-1.152,0.113-2.293,0.217-3.427-0.052
		c-0.862-0.203-1.699-0.482-2.441-0.995c-0.492-0.344-1.083-0.566-1.521-0.967c-0.591-0.543-1.111-1.179-1.604-1.818
		c-0.551-0.717-1.03-1.478-1.309-2.368c-0.276-0.893-0.473-1.789-0.45-2.731c0.008-0.699-0.039-1.401,0.008-2.098
		c0.039-0.649,0.107-1.306,0.259-1.938c0.271-1.166,0.562-2.336,0.932-3.475c0.49-1.513,1.264-2.895,2.355-4.059
		c0.626-0.667,1.425-1.125,2.308-1.411c0.036-0.011,0.073-0.033,0.105-0.027c0.623,0.145,1.175-0.214,1.775-0.271
		c0.28-0.027,0.549-0.173,0.821-0.261c0.148-0.048,0.296-0.126,0.445-0.12c0.583,0.024,1.179-0.004,1.735,0.131
		c1.183,0.292,2.446,0.394,3.44,1.227c0.46,0.387,0.93,0.769,1.369,1.179c0.302,0.286,0.38,1.545,0.07,1.745
		c-0.589,0.38-1.185,0.767-1.974,0.71c-0.644-0.043-1.301,0.047-1.946,0.11c-0.155,0.016-0.338,0.121-0.433,0.243
		c-0.295,0.377-0.586,0.762-0.818,1.179c-0.243,0.443-0.431,0.919-0.618,1.391c-0.097,0.245-0.157,0.509-0.218,0.767
		c-0.13,0.538-0.261,1.077-0.374,1.615c-0.318,1.506-0.688,3.004-0.916,4.518c-0.145,0.961-0.079,1.955-0.093,2.935
		c-0.005,0.414,0.212,0.543,0.556,0.299c0.448-0.309,0.86-0.669,1.263-1.033c0.736-0.666,1.479-1.327,2.173-2.039
		c0.686-0.698,1.314-1.456,1.965-2.194c0.407-0.458,0.821-0.917,1.211-1.393c0.241-0.296,0.446-0.623,0.658-0.942
		c0.243-0.361,0.482-0.726,0.717-1.093c0.4-0.619,0.821-1.229,1.187-1.871c0.513-0.903,1.007-1.82,1.464-2.755
		c0.249-0.504,0.433-1.048,0.586-1.594c0.332-1.188,0.539-2.423,0.967-3.571c0.292-0.762,0.455-1.546,0.676-2.317
		c0.175-0.624,0.307-1.258,0.538-1.875c0.281-0.77,0.44-1.583,0.666-2.374c0.316-1.133,0.646-2.261,0.96-3.396
		c0.064-0.234,0.187-0.36,0.436-0.333c0.789,0.075,1.482,0.28,1.925,1.042c0.189,0.331,0.549,0.567,0.814,0.856
		c0.677,0.741,1.211,1.534,1.094,2.618c-0.058,0.537-0.043,1.084-0.061,1.627c-0.005,0.12,0.001,0.245-0.031,0.36
		c-0.199,0.76-0.215,1.519-0.094,2.297c0.054,0.352,0.008,0.726-0.032,1.084c-0.076,0.674-0.165,1.348-0.267,2.018
		c-0.149,0.982-0.287,1.964-0.461,2.94c-0.234,1.334-0.541,2.658-0.752,3.995c-0.107,0.679-0.089,1.377-0.113,2.063
		c-0.049,1.073-0.126,2.146-0.126,3.22c-0.004,0.846,0.08,1.691,0.142,2.535c0.021,0.268,0.215,0.329,0.489,0.15
		c0.554-0.365,1.128-0.721,1.646-1.135c0.927-0.74,1.845-1.487,2.717-2.286c0.328-0.302,0.557-0.734,0.755-1.142
		c0.095-0.193,0.016-0.474-0.014-0.711c-0.164-1.284-0.088-2.557,0.097-3.834c0.126-0.876,0.15-1.773,0.514-2.592
		c0.372-0.827,0.784-1.637,1.192-2.447c0.059-0.115,0.166-0.238,0.282-0.281c0.623-0.233,1.25-0.557,1.897-0.638
		c0.914-0.112,1.855-0.042,2.782-0.033c0.178,0.001,0.354,0.066,0.524,0.116c0.164,0.044,0.316,0.132,0.483,0.158
		c0.95,0.147,1.522,0.818,1.633,1.774c0.142,1.196-0.187,2.299-0.512,3.421c-0.241,0.839-0.734,1.537-1.164,2.274
		c-0.113,0.196-0.172,0.424-0.288,0.622c-0.602,1.045-1.2,2.089-1.808,3.127c-0.145,0.237-0.356,0.434-0.491,0.67
		c-0.152,0.264-0.056,0.396,0.248,0.433c0.459,0.049,0.824-0.164,1.17-0.421c0.62-0.468,1.244-0.924,1.837-1.42
		c0.856-0.715,1.706-1.438,2.516-2.203c0.638-0.605,1.21-1.285,1.816-1.924c0.421-0.435,0.872-0.844,1.265-1.301
		c0.188-0.217,0.346-0.508,0.396-0.786c0.221-1.218,0.4-2.442,0.583-3.665c0.033-0.236,0.006-0.482,0.04-0.72
		c0.021-0.14,0.079-0.311,0.179-0.396c0.426-0.358,0.915-0.464,1.461-0.339c0.391,0.09,0.791,0.127,1.179,0.216
		c0.324,0.075,0.638,0.189,0.955,0.285c0.069,0.022,0.137,0.067,0.204,0.069c0.887,0.01,1.479,0.556,1.998,1.174
		c0.411,0.481,0.615,1.086,0.623,1.713c0.011,0.736-0.056,1.474-0.083,2.214c-0.003,0.183,0.032,0.366,0.043,0.55
		c0.035,0.014,0.073,0.031,0.107,0.042c0.282-0.235,0.574-0.455,0.84-0.709c0.646-0.612,1.231-1.299,2.042-1.707
		c0.427-0.212,0.869-0.451,1.329-0.538c1.394-0.269,2.774-0.31,4.111,0.327c0.542,0.257,0.959,0.588,1.284,1.075
		c0.228,0.339,0.391,0.367,0.645,0.045c0.835-1.048,1.868-1.875,2.962-2.609c0.745-0.5,1.551-0.936,2.545-0.727
		c0.675,0.144,1.369,0.165,2.05,0.272c0.858,0.135,1.658,1.048,1.718,1.911c0.091,1.268,0.194,2.537,0.269,3.804
		c0.019,0.382-0.062,0.771-0.091,1.155c-0.02,0.242-0.038,0.485-0.032,0.725c0.016,0.786,0.035,1.57,0.064,2.354
		c0.006,0.202,0.094,0.365,0.313,0.213c0.854-0.589,1.698-1.195,2.544-1.801c0.279-0.199,0.268-0.437,0.163-0.764
		c-0.537-1.682-0.958-3.384-0.553-5.172c0.075-0.32,0.118-0.644,0.166-0.97c0.151-0.991,0.562-1.843,1.34-2.491
		c0.229-0.192,0.502-0.33,0.773-0.456c0.382-0.177,0.785-0.321,1.18-0.479c0.574-0.238,1.157-0.316,1.775-0.14
		c0.429,0.123,0.883,0.168,1.224,0.503c0.22,0.213,0.463,0.408,0.653,0.645c0.232,0.292,0.429,0.615,0.63,0.933
		c0.067,0.108,0.125,0.24,0.138,0.366c0.07,0.791,0.172,1.584,0.161,2.375c-0.008,0.42-0.191,0.849-0.352,1.252
		c-0.331,0.842-0.733,1.661-1.043,2.509c-0.354,0.952-0.762,1.854-1.532,2.549c-0.052,0.05-0.098,0.105-0.144,0.164
		c-0.019,0.025-0.019,0.065-0.047,0.196c0.23-0.039,0.434-0.033,0.599-0.113c1.165-0.573,2.314-1.189,3.272-2.081
		c1.307-1.214,2.668-2.364,3.566-3.972c0.448-0.807,1.189-1.443,1.669-2.235c0.384-0.627,0.582-1.367,0.863-2.062
		c0.032-0.078,0.032-0.165,0.049-0.249c0.177-0.723,0.438-0.903,1.168-0.778c0.621,0.104,1.24,0.223,1.858,0.343
		c0.103,0.02,0.223,0.059,0.296,0.125c0.775,0.647,1.439,1.381,1.7,2.388c0.223,0.854,0.376,1.72,0.276,2.612
		c-0.011,0.098,0,0.195,0.017,0.291c0.004,0.042,0.033,0.085,0.077,0.193c0.352-0.267,0.676-0.523,1.004-0.767
		c1.189-0.884,2.25-1.946,3.578-2.624c0.467-0.236,1.006-0.334,1.519-0.466c1.051-0.27,2.088-0.117,3.123,0.134
		c0.305,0.076,0.612,0.157,0.917,0.217c0.749,0.146,1.207,0.687,1.67,1.212c0.066,0.075,0.102,0.201,0.104,0.301
		c0.026,0.867,0.153,1.727-0.013,2.601c-0.17,0.9-0.189,1.829-0.365,2.729c-0.162,0.838-0.39,1.672-0.688,2.475
		c-0.293,0.786-0.471,1.577-0.537,2.403c-0.006,0.083,0.002,0.169,0.01,0.251c0.006,0.036,0.027,0.071,0.054,0.145
		c0.384-0.209,0.766-0.398,1.134-0.615c0.387-0.229,0.765-0.465,1.138-0.717c0.598-0.405,1.223-0.787,1.771-1.252
		c0.606-0.516,1.128-1.122,1.7-1.675c0.383-0.369,0.794-0.713,1.182-1.074c0.662-0.617,1.35-1.211,1.963-1.874
		c0.362-0.394,0.188-0.921,0.072-1.392c-0.22-0.883-0.502-1.75-0.647-2.644c-0.1-0.622-0.017-1.276-0.014-1.917
		c0-0.024,0.012-0.051,0.011-0.071c-0.077-1.394,0.717-2.484,1.316-3.63c0.296-0.567,0.812-0.924,1.536-0.938
		c0.674-0.009,1.343-0.212,2.014-0.188c0.642,0.023,1.322,0.13,1.912,0.372c1.117,0.459,1.719,1.337,1.896,2.578
		c0.309,2.173-0.187,4.109-1.464,5.862c-0.445,0.617-0.948,1.195-1.409,1.804c-0.521,0.691-0.497,1.458-0.162,2.203
		c0.355,0.781,0.789,1.522,1.16,2.292c0.22,0.456,0.396,0.935,0.583,1.403c0.14,0.349,0.278,0.698,0.402,1.055
		c0.138,0.382,0.267,0.767,0.377,1.163c0.185,0.635,0.358,1.276,0.525,1.921c0.284,1.114,0.425,2.253,0.46,3.391
		c0.023,0.71-0.196,1.429-0.314,2.141c-0.017,0.104-0.087,0.209-0.1,0.312c-0.12,1.028-0.669,1.866-1.188,2.738
		c-0.39,0.649-0.948,1.068-1.477,1.559c-0.676,0.627-1.481,0.987-2.326,1.194c-0.713,0.172-1.446,0.338-2.22,0.279
		c-0.639-0.044-1.276-0.016-1.891-0.237c-0.261-0.094-0.519-0.198-0.757-0.333c-1.497-0.845-2.386-2.171-2.734-3.807
		c-0.147-0.685,0.008-1.442,0.073-2.164c0.029-0.294,0.195-0.567,0.562-0.559c0.355,0.01,0.483,0.268,0.56,0.568
		c0.097,0.35,0.104,0.779,0.321,1.019c0.397,0.432,0.917,0.756,1.392,1.124c0.043,0.032,0.12,0.052,0.172,0.041
		c0.632-0.118,1.332,0,1.882-0.422c0.619-0.473,1.043-1.074,1.243-1.863c0.239-0.967,0.133-1.921,0.09-2.888
		c-0.047-1.065,0.008-2.127-0.019-3.195c-0.02-0.697-0.09-1.398-0.157-2.097c-0.039-0.444-0.099-0.89-0.188-1.327
		c-0.094-0.464-0.243-0.521-0.602-0.207c-0.394,0.341-0.746,0.727-1.128,1.083c-1.391,1.291-2.742,2.634-4.194,3.855
		c-0.728,0.613-1.595,1.09-2.58,1.279c-0.68,0.131-1.34,0.337-2.015,0.485c-1.295,0.288-2.333-0.339-3.336-1.013
		c-0.208-0.139-0.354-0.411-0.458-0.645c-0.646-1.482-1.185-2.98-1.104-4.654c0.051-1.043,0.377-1.999,0.669-2.969
		c0.296-0.995,0.621-1.983,0.921-2.979c0.03-0.108-0.034-0.245-0.056-0.367c-0.118,0.034-0.27,0.036-0.358,0.115
		c-0.391,0.345-0.799,0.678-1.132,1.07c-0.584,0.688-1.107,1.436-1.68,2.135c-0.694,0.842-1.444,1.637-2.105,2.5
		c-0.396,0.514-0.697,1.107-1.007,1.68c-0.66,1.225-1.253,2.489-1.954,3.689c-0.999,1.707-2.027,3.378-2.776,5.218
		c-0.27,0.672-0.745,1.273-1.211,1.842c-0.462,0.559-1.149,0.709-1.827,0.491c-0.568-0.18-0.991-0.623-1.323-1.127
		c-0.153-0.231-0.298-0.473-0.434-0.715c-0.086-0.155-0.187-0.319-0.211-0.491c-0.147-1.028-0.331-2.06-0.382-3.092
		c-0.032-0.616,0.134-1.251,0.263-1.862c0.322-1.55,0.648-3.105,1.031-4.641c0.307-1.243,0.723-2.458,1.045-3.699
		c0.277-1.048,0.624-2.089,0.66-3.188c0.001-0.033-0.023-0.065-0.036-0.101C185.56,8.81,185.522,8.791,185.482,8.773z
		 M176.692,4.413c-0.046-0.082-0.099-0.295-0.228-0.354c-0.109-0.051-0.359,0.032-0.443,0.135c-0.269,0.339-0.534,0.694-0.715,1.083
		c-0.376,0.809-0.799,1.597-0.84,2.527c-0.03,0.623-0.163,1.243-0.233,1.866c-0.021,0.164-0.001,0.34,0.037,0.5
		c0.026,0.087,0.132,0.207,0.202,0.209c0.099,0.002,0.238-0.071,0.297-0.155c0.28-0.42,0.569-0.84,0.799-1.289
		c0.308-0.599,0.663-1.205,0.813-1.85C176.572,6.248,176.591,5.37,176.692,4.413z M130.362,10.894
		c0.011,0.003,0.021,0.006,0.032,0.009c0.021,0.169,0.013,0.345,0.062,0.502c0.034,0.096,0.15,0.21,0.236,0.22
		c0.091,0.01,0.209-0.086,0.281-0.165c0.091-0.096,0.148-0.218,0.21-0.335c0.464-0.89,0.985-1.756,1.366-2.676
		c0.362-0.866,0.162-1.837,0.295-2.753c0.021-0.127-0.118-0.38-0.212-0.395c-0.149-0.022-0.384,0.066-0.464,0.187
		c-0.527,0.78-1.021,1.581-1.295,2.492c-0.107,0.379-0.161,0.776-0.226,1.17C130.549,9.726,130.455,10.309,130.362,10.894z
		 M213.586,5.193c0.032,0.008,0.069,0.018,0.104,0.028c0,0.108-0.032,0.229,0.006,0.324c0.067,0.157,0.15,0.371,0.276,0.418
		c0.123,0.044,0.365-0.042,0.465-0.153c0.266-0.309,0.511-0.646,0.707-1.003c0.361-0.655,0.689-1.327,1.025-1.999
		c0.142-0.283,0.279-0.565,0.381-0.863c0.13-0.375-0.034-0.845-0.298-0.964c-0.325-0.144-1.391,0.105-1.568,0.417
		c-0.167,0.297-0.293,0.632-0.378,0.965C214.052,3.303,213.821,4.25,213.586,5.193z"/>
	<path fill="#010202" d="M54.033,8.028c-0.229,0.239-0.462,0.473-0.687,0.719c-0.564,0.628-1.146,1.244-1.677,1.901
		c-0.666,0.829-1.29,1.691-1.933,2.542c-0.203,0.27-0.426,0.528-0.602,0.815c-0.483,0.78-0.953,1.569-1.415,2.36
		c-0.29,0.494-1.235,0.868-1.809,0.816c-1.196-0.106-1.631-1.038-2.182-1.868c-0.556-0.84-0.354-1.731-0.223-2.637
		c0.138-0.945,0.19-1.902,0.269-2.854c0.009-0.125-0.025-0.255-0.044-0.425c-0.108,0.062-0.183,0.08-0.222,0.128
		c-0.499,0.672-0.997,1.342-1.487,2.02c-0.431,0.598-0.883,1.184-1.276,1.808c-0.3,0.477-0.522,1.003-0.788,1.504
		c-0.163,0.312-0.34,0.613-0.512,0.917c-0.33,0.59-0.635,1.194-0.998,1.761c-0.643,1.008-1.082,2.141-1.933,3.016
		c-0.048,0.054-0.097,0.107-0.13,0.172c-0.628,1.285-1.284,2.565-1.875,3.873c-0.309,0.679-0.49,1.409-0.747,2.113
		c-0.207,0.574-0.741,0.71-1.245,0.806c-0.729,0.132-1.465-0.013-2.128-0.278c-0.82-0.328-1.452-0.959-1.996-1.647
		c-0.188-0.238-0.237-0.576-0.355-0.874c-0.223-0.559-0.463-1.11-0.646-1.685c-0.075-0.236-0.067-0.528-0.019-0.778
		c0.371-1.901,0.765-3.797,1.15-5.696c0.025-0.105,0.003-0.226,0.003-0.335c-0.038-0.014-0.078-0.022-0.114-0.035
		c-0.071,0.126-0.172,0.243-0.214,0.373c-0.346,1.116-1.163,1.877-1.963,2.656c-0.147,0.145-0.315,0.261-0.463,0.405
		c-1.431,1.366-3.092,1.509-4.905,0.955c-0.608-0.185-1.141-0.43-1.525-0.974c-0.209-0.296-0.537-0.497-0.751-0.792
		c-0.423-0.555-0.819-1.134-1.186-1.729c-0.229-0.366-0.356-0.408-0.638-0.075c-0.561,0.662-0.947,1.425-1.358,2.183
		c-0.5,0.921-1.117,1.783-1.736,2.627c-0.426,0.584-0.852,1.167-1.467,1.601c-0.992,0.698-2.073,1.156-3.253,1.374
		c-0.395,0.075-0.819-0.016-1.229-0.034c-0.909-0.046-1.801-0.119-2.598-0.672c-0.361-0.249-0.885-0.282-1.258-0.531
		c-0.536-0.355-1.053-0.774-1.483-1.258c-0.625-0.697-1.251-1.425-1.719-2.231c-0.435-0.751-0.583-1.633-0.646-2.517
		c-0.119-1.721,0.178-3.375,0.711-5.003c0.449-1.383,0.812-2.797,1.335-4.146c0.447-1.15,1.017-2.291,2.092-3.001
		C4.888,4.911,5.701,4.537,6.51,4.196c0.798-0.331,1.634-0.599,2.47-0.824C10.368,3,11.728,2.478,13.202,2.548
		c1.248,0.059,2.431,0.362,3.334,1.236c0.525,0.508,0.858,1.213,1.276,1.832c0.033,0.049,0.03,0.121,0.063,0.169
		c0.095,0.147,0.195,0.291,0.294,0.435c0.116-0.109,0.254-0.202,0.347-0.327c0.624-0.842,1.976-1.223,3.072-0.905
		c0.453,0.132,0.818,0.308,1.144,0.685c0.334,0.39,0.445,0.817,0.429,1.269c-0.017,0.614-0.023,1.265-0.225,1.834
		c-0.273,0.767-0.322,1.553-0.435,2.33c-0.075,0.536-0.085,1.083-0.125,1.62c-0.041,0.688-0.119,1.377-0.123,2.064
		c0,0.58,0.071,1.161,0.145,1.735c0.033,0.264,0.198,0.307,0.366,0.132c0.405-0.414,0.825-0.816,1.203-1.252
		c0.477-0.558,0.935-1.136,1.369-1.73c0.654-0.897,1.286-1.812,1.916-2.728c0.463-0.68,0.883-1.39,1.366-2.055
		c0.525-0.725,1.029-1.483,1.669-2.098c0.919-0.883,1.474-1.933,1.821-3.128c0.203-0.695,0.401-1.397,0.646-2.081
		c0.144-0.397,0.442-0.74,0.88-0.784c0.654-0.066,1.318-0.066,1.977-0.062c0.681,0.005,1.13,0.442,1.547,0.907
		c0.188,0.206,0.33,0.459,0.532,0.643c0.349,0.317,0.453,0.699,0.424,1.145c-0.066,0.879-0.12,1.762-0.187,2.644
		c-0.058,0.773-0.132,1.542-0.189,2.316c-0.011,0.164,0.02,0.325,0.03,0.492c0.036,0.025,0.069,0.05,0.106,0.075
		c0.308-0.249,0.625-0.49,0.922-0.753c0.795-0.708,1.552-1.459,2.378-2.127c0.514-0.413,1.097-0.779,1.704-1.026
		c0.464-0.188,1.014-0.162,1.528-0.214c0.288-0.03,0.587,0.021,0.864-0.045c0.516-0.124,0.982-0.043,1.443,0.192
		c0.041,0.024,0.084,0.052,0.13,0.064c0.933,0.245,1.098,0.984,1.158,1.794c0.03,0.387,0.057,0.774,0.105,1.158
		c0.018,0.117,0.094,0.261,0.187,0.314c0.055,0.033,0.213-0.072,0.297-0.149c0.791-0.708,1.543-1.462,2.37-2.126
		c0.789-0.633,1.677-1.113,2.744-1.119c0.298-0.001,0.597-0.127,0.896-0.123c0.553,0.006,1.106,0.062,1.656,0.113
		c0.564,0.055,0.897,0.5,1.3,0.822c0.549,0.441,0.966,1.029,1.152,1.677c0.189,0.658,0.171,1.388,0.177,2.087
		c0.003,0.419-0.141,0.834-0.185,1.257c-0.079,0.755-0.079,1.521-0.206,2.265c-0.213,1.243-0.49,2.473-0.753,3.706
		c-0.108,0.509-0.224,1.016,0,1.623c0.195-0.196,0.37-0.338,0.503-0.505c0.476-0.597,0.918-1.22,1.416-1.8
		c0.516-0.596,1.094-1.131,1.614-1.718c0.645-0.723,1.312-1.437,1.865-2.227c0.579-0.826,1.006-1.755,1.55-2.612
		c0.594-0.94,1.269-1.829,1.849-2.778c0.271-0.447,0.431-0.971,0.592-1.474c0.267-0.829,0.506-1.669,0.739-2.508
		c0.091-0.324,0.232-0.532,0.591-0.595c0.294-0.052,0.568-0.207,0.861-0.253c0.412-0.066,0.781,0.003,1.061,0.392
		c0.289,0.407,0.746,0.654,1.001,1.123c0.473,0.879,0.643,1.778,0.541,2.765c-0.066,0.668-0.033,1.346-0.059,2.016
		c-0.018,0.583-0.01,1.165-0.07,1.741c-0.156,1.457-0.344,2.909-0.522,4.363c-0.023,0.19-0.079,0.375-0.11,0.565
		c-0.006,0.039,0.03,0.087,0.084,0.236c0.498-0.431,0.983-0.803,1.412-1.227c0.837-0.822,1.658-1.66,2.453-2.521
		c0.415-0.453,0.769-0.964,1.137-1.459c0.826-1.114,1.648-2.231,2.458-3.36c0.796-1.108,1.572-2.231,2.361-3.345
		c0.271-0.385,0.526-0.789,0.848-1.131c0.163-0.179,0.444-0.334,0.681-0.346c0.832-0.044,1.667-0.033,2.498-0.019
		c0.14,0.003,0.322,0.087,0.413,0.195c0.707,0.819,1.104,1.736,0.954,2.86c-0.137,1.031-0.205,2.068-0.32,3.105
		c-0.057,0.49-0.159,0.975-0.218,1.465c-0.056,0.444-0.06,0.894-0.125,1.335c-0.234,1.534-0.477,3.066-0.737,4.594
		c-0.238,1.393-0.51,2.782-0.764,4.173c-0.021,0.104-0.029,0.22-0.039,0.322c-0.025,0.332,0.11,0.504,0.458,0.494
		c0.417-0.011,0.834-0.052,1.237,0.005c0.729,0.103,1.452,0.253,2.169,0.413c0.259,0.055,0.455,0.208,0.393,0.551
		c-0.066,0.337-0.21,0.486-0.578,0.505c-1.146,0.052-2.289,0.153-3.437,0.226c-0.49,0.032-0.72,0.302-0.826,0.76
		c-0.202,0.85-0.429,1.693-0.648,2.538c-0.032,0.126-0.064,0.279-0.149,0.366c-0.474,0.509-0.487,1.189-0.71,1.798
		c-0.314,0.85-0.646,1.697-1.05,2.507c-0.529,1.076-1.034,2.19-1.74,3.141c-0.705,0.949-1.163,2.127-2.232,2.783
		c-0.513,0.316-1.045,0.611-1.599,0.852c-0.538,0.235-1.1,0.429-1.669,0.587c-0.675,0.188-1.34,0.09-1.992-0.164
		c-0.426-0.161-0.873-0.268-1.318-0.394c-0.358-0.097-0.669-0.247-0.895-0.567c-0.147-0.209-0.355-0.365-0.53-0.55
		c-0.078-0.079-0.188-0.154-0.211-0.245c-0.149-0.623-0.582-1.099-0.841-1.654c-0.269-0.577-0.38-1.243-0.477-1.88
		c-0.186-1.245-0.093-2.47,0.54-3.595c0.198-0.354,0.457-0.683,0.713-1.002c0.358-0.438,0.696-0.908,1.116-1.281
		c0.49-0.435,1.041-0.818,1.602-1.17c0.883-0.549,1.772-1.097,2.705-1.554c1.033-0.507,2.111-0.909,3.177-1.342
		c0.239-0.098,0.377-0.236,0.426-0.488c0.183-0.94,0.348-1.884,0.562-2.814c0.247-1.074,0.545-2.136,0.804-3.21
		c0.044-0.184,0.011-0.386,0.016-0.58c-0.139,0.129-0.293,0.248-0.412,0.396c-0.206,0.251-0.361,0.55-0.593,0.779
		c-0.518,0.503-0.804,1.192-1.431,1.623c-0.393,0.271-0.65,0.736-0.964,1.12c-0.636,0.783-1.459,1.343-2.294,1.877
		c-0.523,0.343-1.072,0.658-1.651,0.886c-0.34,0.132-0.763,0.107-1.143,0.084c-1.215-0.093-2.329-0.457-3.218-1.333
		c-0.601-0.596-1.078-1.285-1.276-2.118c-0.208-0.847-0.351-1.709-0.532-2.562c-0.027-0.117-0.105-0.227-0.162-0.336
		c-0.108,0.079-0.264,0.135-0.327,0.244c-0.331,0.573-0.622,1.178-0.964,1.746c-0.817,1.341-1.738,2.615-2.982,3.586
		c-0.736,0.574-1.489,1.164-2.441,1.401c-0.688,0.164-1.369,0.22-2.035-0.041c-0.504-0.196-1.009-0.413-1.476-0.689
		c-0.798-0.46-1.026-1.343-1.453-2.081c-0.109-0.184-0.162-0.405-0.247-0.604c-0.72-1.706-0.709-3.449-0.345-5.238
		c0.332-1.647,0.561-3.319,0.831-4.979c0.025-0.152,0.003-0.312,0.003-0.468C54.12,8.053,54.074,8.041,54.033,8.028z M8.412,19.269
		c0.074,0.167,0.125,0.282,0.176,0.398c0.099-0.055,0.225-0.097,0.297-0.17c0.663-0.704,1.317-1.416,1.971-2.129
		c0.064-0.07,0.099-0.165,0.16-0.242c0.327-0.445,0.649-0.896,0.996-1.329c0.465-0.581,1.01-1.108,1.417-1.727
		c0.5-0.762,1.155-1.422,1.509-2.291c0.169-0.417,0.504-0.765,0.756-1.15c0.324-0.494,0.317-0.491-0.093-0.911
		c-0.187-0.192-0.337-0.414-0.523-0.604c-0.19-0.198-0.371-0.442-0.611-0.557c-0.668-0.314-1.358-0.578-2.045-0.847
		c-0.256-0.101-0.503-0.041-0.649,0.183c-0.271,0.408-0.562,0.818-0.743,1.272c-0.354,0.886-0.632,1.802-0.941,2.707
		c-0.033,0.103-0.072,0.211-0.072,0.317c-0.008,1.113-0.431,2.128-0.703,3.185C8.982,16.667,8.709,17.985,8.412,19.269z
		 M71.595,30.228c0,0.241-0.022,0.486,0.003,0.728c0.058,0.534,0.321,0.927,0.84,1.131c0.479,0.181,0.829-0.064,1.147-0.354
		c0.222-0.2,0.438-0.426,0.588-0.684c0.384-0.66,0.745-1.331,1.086-2.011c0.365-0.722,0.655-1.482,1.057-2.183
		c0.435-0.76,0.681-1.58,0.906-2.403c0.082-0.294-0.028-0.39-0.323-0.312c-0.115,0.03-0.233,0.072-0.339,0.13
		c-0.921,0.533-1.865,1.033-2.748,1.616c-0.508,0.338-1.011,0.754-1.349,1.246C71.839,28.044,71.567,29.109,71.595,30.228z"/>
</g>
</svg>
