<?xml version="1.0" encoding="utf-8"?>
<!-- Generator: Adobe Illustrator 16.0.0, SVG Export Plug-In . SVG Version: 6.00 Build 0)  -->
<!DOCTYPE svg PUBLIC "-//W3C//DTD SVG 1.1//EN" "http://www.w3.org/Graphics/SVG/1.1/DTD/svg11.dtd">
<svg version="1.1" id="Layer_1" xmlns="http://www.w3.org/2000/svg" xmlns:xlink="http://www.w3.org/1999/xlink" x="0px" y="0px"
	 width="200px" height="41.49px" viewBox="0 2.074 200 41.49" enable-background="new 0 2.074 200 41.49" xml:space="preserve">
<g>
	<path fill="#010202" d="M168.632,17.591c-0.147,0.268-0.29,0.544-0.454,0.809c-0.349,0.559-0.7,1.115-1.063,1.662
		c-0.195,0.291-0.413,0.567-0.636,0.833c-0.344,0.412-0.702,0.808-1.061,1.209c-0.089,0.098-0.203,0.177-0.271,0.283
		c-0.622,0.916-1.591,1.275-2.554,1.676c-0.896,0.372-1.714,0.205-2.551-0.179c-0.33-0.154-0.72-0.202-1.087-0.266
		c-0.1-0.022-0.234,0.049-0.326,0.114c-0.457,0.321-0.896,0.677-1.366,0.979c-0.661,0.42-1.317,0.855-2.021,1.188
		c-0.549,0.264-1.157,0.42-1.756,0.554c-0.894,0.198-1.784-0.331-2.307-1.086c-0.51-0.737-0.92-1.516-1.16-2.383
		c-0.049-0.178-0.079-0.368-0.082-0.552c-0.008-0.893,0.049-1.791-0.017-2.679c-0.077-1.011,0.102-1.994,0.176-2.993
		c0.009-0.11-0.035-0.223-0.058-0.335c-0.093,0.042-0.214,0.06-0.284,0.13c-0.439,0.461-0.879,0.923-1.303,1.4
		c-0.437,0.497-0.875,0.992-1.271,1.522c-0.557,0.75-1.087,1.52-1.594,2.304c-0.389,0.608-0.7,1.272-1.102,1.875
		c-0.346,0.519-0.74,1.013-1.167,1.468c-0.385,0.413-0.884,0.647-1.463,0.391c-0.195-0.088-0.376-0.234-0.51-0.396
		c-0.35-0.412-0.649-0.831-0.845-1.382c-0.316-0.881-0.049-1.693,0.014-2.532c0.059-0.767,0.176-1.53,0.262-2.295
		c0.008-0.049-0.018-0.101-0.028-0.169c-0.403,0.034-0.558,0.353-0.734,0.618c-0.502,0.736-1.021,1.461-1.464,2.229
		c-0.405,0.701-0.721,1.445-1.075,2.176c-0.153,0.312-0.307,0.625-0.456,0.941c-0.254,0.535-0.506,1.067-0.762,1.607
		c-0.094,0.209-0.174,0.425-0.274,0.63c-0.32,0.653-0.677,1.286-0.964,1.95c-0.457,1.069-0.862,2.16-1.312,3.229
		c-0.17,0.398-0.268,0.803-0.346,1.224c-0.096,0.519-0.332,1.022-0.548,1.513c-0.208,0.491-0.709,0.469-1.132,0.554
		c-1.086,0.218-2.047-0.09-2.896-0.77c-0.183-0.148-0.352-0.344-0.461-0.551c-0.31-0.577-0.6-1.165-0.865-1.762
		c-0.349-0.781-0.343-1.608-0.239-2.441c0.161-1.341,0.296-2.691,0.493-4.029c0.193-1.321,0.441-2.63,0.672-3.944
		c0.078-0.43,0.168-0.856,0.258-1.282c-0.034-0.023-0.07-0.047-0.102-0.07c-0.23,0.215-0.484,0.414-0.694,0.646
		c-0.31,0.343-0.601,0.705-0.889,1.067c-0.86,1.089-1.676,2.22-2.594,3.255c-0.865,0.977-2.001,1.479-3.338,1.321
		c-0.596-0.068-1.182-0.244-1.767-0.384c-0.328-0.078-0.59,0.048-0.75,0.296c-0.617,0.963-1.561,1.568-2.383,2.312
		c-0.516,0.47-1.104,0.815-1.666,1.221c-0.185,0.138-0.443,0.165-0.669,0.248c-1.341,0.48-2.679,0.442-4.011-0.052
		c-0.451-0.17-0.898-0.359-1.341-0.557c-0.127-0.057-0.229-0.168-0.339-0.26c-0.328-0.265-0.684-0.513-0.982-0.815
		c-0.27-0.27-0.488-0.591-0.705-0.907c-0.19-0.278-0.385-0.568-0.513-0.879c-0.289-0.698-0.544-1.411-0.795-2.121
		c-0.088-0.237-0.129-0.496-0.202-0.732c-0.022-0.068-0.091-0.172-0.13-0.169c-0.077,0.013-0.156,0.067-0.208,0.132
		c-0.387,0.566-0.773,1.138-1.156,1.711c-0.042,0.064-0.08,0.137-0.113,0.203c-0.355,0.591-0.701,1.188-1.071,1.767
		c-0.349,0.55-0.684,1.11-1.103,1.605c-0.357,0.417-0.814,0.752-1.25,1.101c-0.342,0.276-0.762,0.458-0.923,0.914
		c-0.007,0.021-0.026,0.045-0.042,0.047c-0.655,0.158-1.08,0.762-1.804,0.835c-1.047,0.103-2.085,0.196-3.116-0.048
		c-0.783-0.184-1.544-0.438-2.219-0.904c-0.448-0.313-0.985-0.515-1.383-0.879c-0.538-0.494-1.01-1.072-1.458-1.653
		c-0.501-0.651-0.937-1.344-1.19-2.152c-0.25-0.812-0.43-1.627-0.409-2.482c0.007-0.636-0.035-1.275,0.007-1.909
		c0.036-0.589,0.098-1.187,0.235-1.761c0.246-1.06,0.511-2.124,0.848-3.16c0.445-1.375,1.149-2.631,2.141-3.69
		c0.569-0.606,1.295-1.023,2.099-1.283c0.033-0.01,0.066-0.03,0.095-0.025c0.566,0.132,1.068-0.195,1.614-0.246
		c0.254-0.025,0.499-0.157,0.747-0.237c0.134-0.044,0.269-0.114,0.405-0.109c0.53,0.021,1.071-0.003,1.577,0.119
		c1.075,0.266,2.223,0.357,3.127,1.115c0.419,0.353,0.846,0.699,1.245,1.072c0.275,0.259,0.346,1.405,0.063,1.585
		c-0.535,0.347-1.077,0.698-1.794,0.646c-0.585-0.039-1.183,0.043-1.77,0.101c-0.141,0.015-0.307,0.11-0.394,0.221
		c-0.268,0.343-0.533,0.693-0.744,1.072c-0.221,0.403-0.392,0.836-0.562,1.266c-0.088,0.222-0.143,0.462-0.198,0.696
		c-0.119,0.489-0.238,0.979-0.34,1.469c-0.289,1.369-0.625,2.731-0.833,4.107c-0.132,0.874-0.071,1.777-0.084,2.669
		c-0.005,0.377,0.193,0.494,0.505,0.271c0.407-0.281,0.782-0.607,1.148-0.939c0.669-0.605,1.345-1.206,1.975-1.854
		c0.624-0.635,1.195-1.323,1.787-1.994c0.371-0.417,0.747-0.834,1.102-1.267c0.219-0.269,0.406-0.566,0.597-0.856
		c0.222-0.328,0.439-0.66,0.653-0.993c0.363-0.563,0.747-1.117,1.079-1.702c0.467-0.82,0.916-1.654,1.332-2.504
		c0.226-0.458,0.394-0.953,0.533-1.449c0.301-1.08,0.49-2.203,0.879-3.247c0.265-0.692,0.413-1.405,0.614-2.106
		c0.159-0.567,0.279-1.144,0.49-1.705c0.255-0.7,0.4-1.439,0.605-2.158c0.287-1.031,0.587-2.056,0.873-3.087
		c0.059-0.212,0.17-0.328,0.396-0.303c0.718,0.068,1.348,0.254,1.75,0.947c0.172,0.3,0.499,0.515,0.74,0.778
		c0.615,0.673,1.101,1.395,0.995,2.38c-0.054,0.487-0.039,0.985-0.057,1.479c-0.004,0.109,0.002,0.222-0.027,0.327
		c-0.181,0.691-0.195,1.381-0.086,2.088c0.049,0.321,0.008,0.661-0.029,0.986c-0.069,0.614-0.15,1.226-0.243,1.835
		c-0.135,0.893-0.26,1.785-0.419,2.672c-0.212,1.212-0.492,2.417-0.684,3.632c-0.097,0.618-0.08,1.251-0.103,1.875
		c-0.045,0.975-0.114,1.951-0.114,2.928c-0.004,0.769,0.073,1.538,0.13,2.305c0.019,0.243,0.195,0.299,0.444,0.136
		c0.504-0.331,1.025-0.655,1.496-1.031c0.842-0.674,1.678-1.352,2.47-2.078c0.299-0.275,0.507-0.667,0.687-1.039
		c0.086-0.176,0.014-0.431-0.013-0.646c-0.149-1.167-0.081-2.325,0.088-3.486c0.114-0.796,0.137-1.612,0.468-2.356
		c0.338-0.752,0.713-1.489,1.084-2.225c0.053-0.105,0.149-0.217,0.256-0.256c0.566-0.211,1.137-0.506,1.725-0.58
		c0.831-0.102,1.687-0.038,2.529-0.03c0.161,0.001,0.322,0.061,0.477,0.106c0.149,0.04,0.287,0.12,0.439,0.144
		c0.863,0.134,1.382,0.744,1.484,1.613c0.129,1.087-0.171,2.09-0.466,3.109c-0.219,0.763-0.667,1.398-1.058,2.068
		c-0.104,0.179-0.156,0.385-0.263,0.565c-0.548,0.95-1.091,1.899-1.644,2.843c-0.132,0.216-0.324,0.395-0.446,0.61
		c-0.138,0.239-0.051,0.358,0.226,0.393c0.417,0.046,0.748-0.148,1.063-0.383c0.564-0.425,1.132-0.84,1.67-1.291
		c0.777-0.65,1.552-1.307,2.287-2.003c0.58-0.549,1.102-1.168,1.651-1.749c0.383-0.395,0.793-0.767,1.15-1.182
		c0.17-0.197,0.314-0.462,0.36-0.715c0.2-1.107,0.362-2.22,0.529-3.332c0.03-0.215,0.006-0.438,0.037-0.654
		c0.019-0.128,0.071-0.283,0.161-0.361c0.388-0.325,0.833-0.421,1.328-0.308c0.356,0.082,0.72,0.116,1.073,0.196
		c0.294,0.068,0.578,0.173,0.868,0.26c0.062,0.021,0.125,0.061,0.185,0.062c0.807,0.009,1.345,0.505,1.816,1.067
		c0.374,0.438,0.56,0.987,0.566,1.557c0.011,0.669-0.05,1.34-0.075,2.013c-0.003,0.167,0.029,0.333,0.039,0.5
		c0.032,0.014,0.066,0.029,0.098,0.039c0.257-0.213,0.521-0.413,0.763-0.645c0.588-0.556,1.12-1.181,1.857-1.552
		c0.388-0.192,0.791-0.409,1.208-0.488c1.268-0.245,2.522-0.282,3.737,0.297c0.494,0.234,0.871,0.536,1.169,0.978
		c0.206,0.308,0.354,0.334,0.586,0.041c0.758-0.953,1.696-1.705,2.691-2.372c0.679-0.455,1.411-0.851,2.313-0.661
		c0.614,0.131,1.246,0.149,1.864,0.247c0.78,0.123,1.507,0.953,1.562,1.738c0.081,1.152,0.176,2.307,0.244,3.458
		c0.018,0.348-0.057,0.701-0.082,1.051c-0.019,0.219-0.035,0.44-0.029,0.658c0.015,0.715,0.031,1.428,0.058,2.141
		c0.005,0.183,0.085,0.332,0.285,0.193c0.776-0.535,1.544-1.086,2.312-1.638c0.254-0.18,0.242-0.397,0.148-0.694
		c-0.488-1.529-0.871-3.076-0.504-4.702c0.069-0.292,0.108-0.585,0.151-0.882c0.139-0.901,0.511-1.676,1.218-2.265
		c0.21-0.174,0.457-0.3,0.703-0.414c0.348-0.161,0.713-0.292,1.072-0.437c0.522-0.215,1.053-0.287,1.613-0.127
		c0.393,0.112,0.804,0.153,1.115,0.458c0.199,0.194,0.42,0.371,0.592,0.587c0.212,0.265,0.391,0.558,0.574,0.848
		c0.06,0.098,0.113,0.218,0.124,0.333c0.063,0.719,0.157,1.44,0.147,2.159c-0.007,0.382-0.174,0.771-0.32,1.138
		c-0.302,0.766-0.667,1.511-0.948,2.281c-0.322,0.866-0.692,1.687-1.394,2.317c-0.047,0.045-0.089,0.096-0.13,0.149
		c-0.018,0.023-0.018,0.06-0.042,0.179c0.208-0.036,0.394-0.03,0.543-0.103c1.06-0.521,2.104-1.08,2.975-1.892
		c1.189-1.104,2.425-2.148,3.242-3.611c0.408-0.733,1.082-1.312,1.518-2.032c0.349-0.57,0.529-1.243,0.785-1.875
		c0.029-0.071,0.029-0.15,0.044-0.226c0.161-0.658,0.398-0.822,1.062-0.708c0.565,0.095,1.127,0.203,1.689,0.311
		c0.094,0.019,0.203,0.055,0.269,0.114c0.704,0.588,1.309,1.256,1.547,2.171c0.201,0.776,0.342,1.564,0.25,2.375
		c-0.01,0.089,0,0.177,0.016,0.265c0.004,0.038,0.03,0.077,0.069,0.176c0.32-0.243,0.615-0.476,0.912-0.697
		c1.082-0.804,2.046-1.769,3.254-2.385c0.425-0.215,0.914-0.304,1.381-0.424c0.956-0.246,1.898-0.106,2.84,0.123
		c0.276,0.068,0.556,0.142,0.833,0.197c0.682,0.132,1.099,0.624,1.519,1.102c0.06,0.068,0.093,0.183,0.095,0.273
		c0.023,0.788,0.14,1.57-0.013,2.365c-0.154,0.818-0.171,1.663-0.332,2.48c-0.146,0.762-0.354,1.52-0.625,2.25
		c-0.266,0.714-0.428,1.435-0.488,2.185c-0.004,0.076,0.002,0.154,0.01,0.229c0.006,0.033,0.025,0.064,0.049,0.133
		c0.35-0.19,0.696-0.362,1.031-0.56c0.352-0.209,0.695-0.423,1.035-0.651c0.542-0.368,1.11-0.716,1.61-1.139
		c0.55-0.47,1.023-1.021,1.545-1.523c0.347-0.334,0.723-0.648,1.074-0.976c0.601-0.561,1.227-1.101,1.785-1.704
		c0.329-0.358,0.171-0.837,0.064-1.266c-0.199-0.802-0.457-1.591-0.588-2.403c-0.09-0.566-0.017-1.161-0.012-1.743
		c0-0.022,0.01-0.046,0.01-0.064c-0.07-1.267,0.652-2.258,1.195-3.3c0.271-0.516,0.739-0.84,1.397-0.853
		c0.612-0.008,1.22-0.193,1.831-0.171c0.584,0.021,1.202,0.118,1.738,0.338c1.016,0.417,1.562,1.215,1.723,2.344
		c0.281,1.976-0.169,3.735-1.33,5.329c-0.406,0.561-0.861,1.086-1.28,1.641c-0.475,0.627-0.454,1.325-0.147,2.003
		c0.322,0.709,0.717,1.383,1.054,2.083c0.199,0.415,0.358,0.85,0.53,1.275c0.127,0.317,0.253,0.635,0.365,0.959
		c0.125,0.348,0.243,0.697,0.342,1.058c0.17,0.577,0.326,1.16,0.479,1.747c0.258,1.012,0.386,2.048,0.417,3.082
		c0.021,0.646-0.177,1.299-0.284,1.946c-0.016,0.095-0.079,0.189-0.092,0.284c-0.109,0.936-0.607,1.697-1.08,2.489
		c-0.354,0.59-0.86,0.971-1.342,1.417c-0.614,0.57-1.347,0.897-2.115,1.087c-0.647,0.156-1.315,0.307-2.019,0.252
		c-0.581-0.04-1.159-0.014-1.719-0.215c-0.237-0.086-0.473-0.18-0.688-0.303c-1.361-0.769-2.168-1.974-2.485-3.462
		c-0.133-0.622,0.008-1.31,0.066-1.967c0.026-0.268,0.177-0.515,0.511-0.508c0.322,0.009,0.438,0.243,0.51,0.517
		c0.088,0.317,0.094,0.707,0.291,0.926c0.36,0.393,0.834,0.688,1.266,1.021c0.039,0.029,0.109,0.048,0.157,0.038
		c0.573-0.107,1.21,0,1.71-0.384c0.563-0.43,0.948-0.977,1.131-1.694c0.217-0.879,0.12-1.746,0.081-2.625
		c-0.042-0.969,0.008-1.934-0.017-2.905c-0.018-0.634-0.082-1.271-0.144-1.906c-0.035-0.403-0.089-0.809-0.172-1.206
		c-0.084-0.422-0.219-0.474-0.547-0.189c-0.356,0.311-0.678,0.663-1.025,0.985c-1.264,1.174-2.491,2.395-3.812,3.506
		c-0.661,0.557-1.45,0.99-2.346,1.162c-0.618,0.118-1.218,0.306-1.832,0.44c-1.177,0.263-2.12-0.308-3.033-0.92
		c-0.188-0.127-0.322-0.374-0.415-0.587c-0.588-1.347-1.079-2.709-1.004-4.231c0.047-0.948,0.343-1.817,0.607-2.699
		c0.27-0.905,0.564-1.802,0.838-2.708c0.027-0.099-0.03-0.223-0.051-0.334c-0.107,0.031-0.245,0.033-0.325,0.105
		c-0.355,0.313-0.727,0.616-1.03,0.972c-0.53,0.626-1.006,1.306-1.526,1.941c-0.631,0.766-1.313,1.488-1.913,2.273
		c-0.36,0.467-0.635,1.006-0.916,1.528c-0.6,1.113-1.141,2.263-1.776,3.353c-0.908,1.552-1.844,3.071-2.524,4.745
		c-0.244,0.61-0.677,1.156-1.101,1.674c-0.42,0.508-1.044,0.645-1.66,0.447c-0.517-0.164-0.901-0.566-1.204-1.024
		c-0.138-0.211-0.27-0.432-0.395-0.651c-0.078-0.14-0.17-0.289-0.191-0.445c-0.133-0.935-0.301-1.874-0.348-2.812
		c-0.029-0.559,0.123-1.137,0.24-1.691c0.293-1.409,0.589-2.824,0.938-4.221c0.277-1.129,0.656-2.234,0.949-3.362
		c0.252-0.953,0.567-1.9,0.6-2.899c0.001-0.03-0.021-0.059-0.032-0.091C168.702,17.624,168.669,17.607,168.632,17.591z
		 M160.642,13.626c-0.044-0.074-0.091-0.268-0.208-0.321c-0.1-0.047-0.327,0.028-0.403,0.123c-0.244,0.308-0.484,0.631-0.649,0.985
		c-0.341,0.735-0.727,1.451-0.764,2.297c-0.026,0.565-0.148,1.129-0.211,1.696c-0.02,0.149-0.002,0.309,0.033,0.455
		c0.023,0.079,0.119,0.188,0.183,0.19c0.091,0.002,0.217-0.063,0.271-0.14c0.255-0.382,0.518-0.765,0.726-1.172
		c0.281-0.545,0.604-1.096,0.74-1.683C160.531,15.294,160.549,14.496,160.642,13.626z M118.521,19.519
		c0.01,0.002,0.019,0.005,0.028,0.008c0.02,0.154,0.012,0.313,0.057,0.457c0.03,0.087,0.137,0.191,0.215,0.2
		c0.082,0.009,0.189-0.078,0.256-0.15c0.082-0.087,0.134-0.198,0.19-0.304c0.422-0.809,0.896-1.597,1.241-2.433
		c0.33-0.788,0.147-1.67,0.27-2.502c0.018-0.116-0.108-0.346-0.193-0.36c-0.136-0.02-0.35,0.06-0.422,0.17
		c-0.479,0.709-0.928,1.438-1.178,2.266c-0.097,0.345-0.146,0.705-0.205,1.064C118.691,18.457,118.605,18.987,118.521,19.519z
		 M194.183,14.336c0.029,0.007,0.062,0.016,0.095,0.025c0,0.098-0.029,0.208,0.006,0.294c0.06,0.143,0.137,0.337,0.249,0.379
		c0.112,0.041,0.332-0.038,0.424-0.138c0.242-0.282,0.464-0.587,0.643-0.912c0.328-0.596,0.627-1.207,0.932-1.817
		c0.13-0.258,0.254-0.514,0.346-0.785c0.12-0.341-0.029-0.768-0.27-0.876c-0.297-0.131-1.266,0.095-1.425,0.379
		c-0.153,0.27-0.267,0.575-0.345,0.877C194.605,12.617,194.396,13.478,194.183,14.336z"/>
	<path fill="#010202" d="M49.129,16.913c-0.208,0.217-0.42,0.43-0.625,0.653c-0.513,0.571-1.042,1.131-1.525,1.729
		c-0.605,0.753-1.172,1.537-1.757,2.311c-0.184,0.245-0.387,0.479-0.548,0.74c-0.439,0.709-0.866,1.427-1.286,2.146
		c-0.264,0.449-1.123,0.789-1.645,0.742c-1.087-0.098-1.483-0.944-1.983-1.699c-0.506-0.763-0.322-1.574-0.203-2.398
		c0.125-0.858,0.173-1.729,0.245-2.594c0.008-0.114-0.022-0.231-0.04-0.386c-0.098,0.056-0.167,0.073-0.202,0.116
		c-0.454,0.611-0.906,1.22-1.352,1.836c-0.392,0.544-0.802,1.077-1.16,1.644c-0.272,0.434-0.474,0.912-0.716,1.367
		c-0.148,0.284-0.31,0.557-0.466,0.834c-0.299,0.536-0.577,1.084-0.907,1.601c-0.584,0.916-0.983,1.946-1.757,2.741
		c-0.044,0.05-0.088,0.098-0.119,0.157c-0.57,1.168-1.167,2.331-1.705,3.521c-0.28,0.616-0.445,1.28-0.679,1.921
		c-0.188,0.521-0.674,0.645-1.131,0.732c-0.663,0.12-1.333-0.012-1.935-0.253c-0.746-0.298-1.32-0.872-1.814-1.498
		c-0.171-0.215-0.216-0.522-0.323-0.794c-0.203-0.508-0.421-1.009-0.587-1.532c-0.068-0.215-0.061-0.479-0.017-0.707
		c0.337-1.728,0.695-3.452,1.045-5.178c0.022-0.097,0.002-0.206,0.002-0.305c-0.035-0.014-0.071-0.021-0.104-0.032
		c-0.065,0.115-0.156,0.221-0.195,0.34c-0.314,1.014-1.057,1.706-1.784,2.413c-0.134,0.133-0.287,0.238-0.421,0.369
		c-1.301,1.242-2.811,1.371-4.459,0.868c-0.553-0.168-1.037-0.391-1.387-0.886c-0.189-0.269-0.487-0.451-0.683-0.72
		c-0.384-0.505-0.745-1.031-1.078-1.572c-0.208-0.333-0.324-0.371-0.58-0.068c-0.51,0.603-0.861,1.296-1.234,1.985
		c-0.455,0.837-1.016,1.621-1.579,2.388c-0.387,0.531-0.774,1.062-1.333,1.455c-0.902,0.635-1.885,1.052-2.958,1.25
		c-0.358,0.068-0.744-0.015-1.117-0.031c-0.826-0.042-1.637-0.107-2.362-0.61c-0.328-0.228-0.804-0.257-1.144-0.482
		c-0.488-0.323-0.958-0.704-1.349-1.145c-0.568-0.633-1.137-1.296-1.562-2.028c-0.396-0.683-0.53-1.484-0.587-2.289
		c-0.108-1.563,0.162-3.068,0.646-4.548c0.408-1.257,0.738-2.543,1.214-3.769c0.406-1.045,0.924-2.083,1.902-2.728
		c0.664-0.443,1.403-0.783,2.138-1.093c0.726-0.301,1.486-0.544,2.246-0.749c1.263-0.338,2.499-0.812,3.839-0.75
		c1.135,0.055,2.21,0.33,3.031,1.125c0.478,0.461,0.78,1.103,1.16,1.666c0.03,0.044,0.027,0.109,0.057,0.153
		c0.086,0.134,0.177,0.264,0.267,0.395c0.106-0.099,0.231-0.183,0.316-0.297c0.567-0.766,1.797-1.112,2.793-0.823
		c0.412,0.12,0.743,0.28,1.04,0.622c0.303,0.355,0.405,0.744,0.39,1.155c-0.016,0.558-0.021,1.149-0.205,1.667
		c-0.249,0.697-0.293,1.412-0.396,2.119c-0.068,0.487-0.078,0.984-0.114,1.473c-0.037,0.625-0.108,1.252-0.112,1.876
		c0,0.527,0.065,1.056,0.132,1.578c0.031,0.239,0.18,0.278,0.333,0.12c0.368-0.377,0.75-0.742,1.093-1.139
		c0.433-0.507,0.85-1.033,1.244-1.574c0.595-0.815,1.169-1.646,1.742-2.479c0.421-0.618,0.803-1.263,1.242-1.868
		c0.477-0.66,0.935-1.349,1.517-1.908c0.835-0.802,1.34-1.757,1.655-2.843c0.185-0.632,0.365-1.27,0.587-1.893
		c0.131-0.36,0.402-0.673,0.8-0.713c0.595-0.059,1.199-0.059,1.798-0.056c0.619,0.004,1.027,0.402,1.407,0.825
		c0.171,0.188,0.299,0.417,0.483,0.584c0.317,0.289,0.412,0.636,0.385,1.042c-0.06,0.799-0.109,1.602-0.17,2.403
		c-0.053,0.703-0.12,1.401-0.172,2.105c-0.01,0.149,0.018,0.294,0.027,0.447c0.033,0.023,0.062,0.046,0.096,0.068
		c0.28-0.227,0.568-0.445,0.838-0.685c0.723-0.644,1.411-1.326,2.162-1.934c0.467-0.375,0.998-0.708,1.549-0.932
		c0.422-0.171,0.922-0.147,1.389-0.195c0.262-0.026,0.534,0.02,0.786-0.041c0.469-0.113,0.893-0.039,1.312,0.175
		c0.037,0.022,0.076,0.047,0.118,0.058c0.849,0.222,0.998,0.895,1.053,1.631c0.027,0.352,0.052,0.703,0.096,1.052
		c0.016,0.106,0.086,0.238,0.17,0.286c0.05,0.03,0.193-0.066,0.27-0.136c0.719-0.644,1.402-1.329,2.154-1.933
		c0.718-0.576,1.525-1.011,2.495-1.018c0.271,0,0.543-0.115,0.814-0.112c0.502,0.006,1.005,0.057,1.506,0.103
		c0.513,0.05,0.815,0.455,1.182,0.748c0.499,0.4,0.877,0.936,1.047,1.524c0.171,0.599,0.155,1.262,0.161,1.897
		c0.003,0.381-0.128,0.758-0.167,1.143c-0.072,0.687-0.072,1.383-0.188,2.06c-0.193,1.13-0.445,2.249-0.684,3.37
		c-0.099,0.463-0.204,0.923,0,1.476c0.177-0.179,0.336-0.308,0.458-0.459c0.432-0.543,0.834-1.109,1.287-1.637
		c0.469-0.542,0.995-1.029,1.468-1.562c0.586-0.657,1.192-1.306,1.695-2.024c0.526-0.75,0.915-1.595,1.409-2.375
		c0.54-0.855,1.154-1.663,1.681-2.526c0.246-0.406,0.392-0.883,0.538-1.34c0.243-0.754,0.46-1.517,0.672-2.28
		c0.083-0.294,0.211-0.484,0.537-0.542c0.268-0.047,0.517-0.188,0.783-0.23c0.375-0.059,0.71,0.003,0.965,0.357
		c0.262,0.37,0.678,0.594,0.91,1.021c0.43,0.799,0.585,1.615,0.492,2.513c-0.061,0.607-0.03,1.224-0.054,1.833
		c-0.017,0.53-0.009,1.06-0.063,1.583c-0.142,1.325-0.312,2.645-0.475,3.967c-0.021,0.173-0.072,0.341-0.1,0.514
		c-0.005,0.035,0.027,0.08,0.077,0.214c0.452-0.392,0.894-0.73,1.284-1.115c0.76-0.748,1.507-1.509,2.229-2.292
		c0.377-0.412,0.699-0.876,1.034-1.326c0.751-1.013,1.499-2.028,2.235-3.054c0.724-1.008,1.429-2.029,2.146-3.042
		c0.247-0.349,0.479-0.717,0.771-1.028c0.148-0.163,0.403-0.303,0.619-0.314c0.756-0.04,1.515-0.03,2.271-0.018
		c0.127,0.002,0.292,0.079,0.375,0.178c0.643,0.745,1.003,1.578,0.868,2.601c-0.125,0.937-0.187,1.879-0.291,2.822
		c-0.052,0.445-0.145,0.887-0.199,1.332c-0.05,0.403-0.054,0.812-0.113,1.213c-0.212,1.395-0.434,2.788-0.67,4.178
		c-0.216,1.266-0.463,2.527-0.694,3.793c-0.019,0.095-0.026,0.2-0.036,0.293c-0.022,0.302,0.101,0.458,0.417,0.448
		c0.379-0.01,0.758-0.047,1.125,0.006c0.663,0.093,1.32,0.229,1.972,0.374c0.235,0.051,0.414,0.189,0.357,0.502
		c-0.06,0.307-0.19,0.441-0.525,0.459c-1.042,0.048-2.081,0.139-3.125,0.205c-0.445,0.029-0.655,0.274-0.75,0.69
		c-0.184,0.773-0.39,1.54-0.589,2.308c-0.029,0.114-0.058,0.254-0.136,0.333c-0.431,0.463-0.442,1.082-0.645,1.635
		c-0.285,0.773-0.587,1.543-0.954,2.279c-0.481,0.979-0.94,1.991-1.583,2.855c-0.641,0.864-1.058,1.934-2.029,2.53
		c-0.467,0.287-0.95,0.556-1.454,0.775c-0.489,0.214-1,0.39-1.517,0.532c-0.614,0.172-1.218,0.083-1.811-0.148
		c-0.388-0.146-0.794-0.243-1.199-0.358c-0.325-0.089-0.608-0.225-0.813-0.515c-0.134-0.19-0.323-0.332-0.482-0.501
		c-0.071-0.071-0.171-0.14-0.192-0.222c-0.135-0.566-0.529-1-0.765-1.504c-0.245-0.524-0.346-1.13-0.434-1.709
		c-0.168-1.133-0.084-2.246,0.491-3.269c0.18-0.322,0.416-0.621,0.649-0.911c0.325-0.398,0.632-0.826,1.014-1.165
		c0.446-0.396,0.947-0.743,1.457-1.063c0.802-0.499,1.611-0.997,2.459-1.412c0.939-0.462,1.919-0.827,2.888-1.221
		c0.217-0.09,0.343-0.215,0.387-0.443c0.167-0.855,0.317-1.713,0.511-2.559c0.225-0.977,0.495-1.942,0.73-2.919
		c0.041-0.167,0.011-0.351,0.015-0.527c-0.126,0.118-0.266,0.225-0.375,0.36c-0.187,0.229-0.328,0.5-0.539,0.709
		c-0.471,0.457-0.731,1.083-1.301,1.476c-0.357,0.246-0.591,0.668-0.876,1.018c-0.579,0.712-1.326,1.222-2.085,1.707
		c-0.476,0.312-0.975,0.598-1.501,0.805c-0.309,0.12-0.694,0.098-1.039,0.077c-1.105-0.085-2.118-0.416-2.926-1.212
		c-0.546-0.543-0.98-1.169-1.16-1.926c-0.189-0.77-0.319-1.554-0.483-2.33c-0.025-0.105-0.096-0.206-0.147-0.305
		c-0.098,0.071-0.24,0.123-0.297,0.222c-0.301,0.521-0.565,1.071-0.876,1.587c-0.743,1.22-1.581,2.378-2.711,3.261
		c-0.67,0.521-1.354,1.059-2.22,1.273c-0.625,0.149-1.244,0.2-1.85-0.037c-0.458-0.178-0.918-0.376-1.342-0.627
		c-0.725-0.418-0.933-1.221-1.321-1.892c-0.099-0.167-0.147-0.368-0.225-0.549c-0.654-1.551-0.645-3.136-0.313-4.762
		c0.302-1.497,0.51-3.017,0.755-4.526c0.023-0.139,0.003-0.284,0.003-0.426C49.208,16.935,49.166,16.925,49.129,16.913z
		 M7.653,27.133c0.067,0.152,0.114,0.256,0.16,0.361c0.091-0.049,0.205-0.088,0.27-0.154c0.603-0.64,1.198-1.287,1.792-1.936
		c0.058-0.063,0.09-0.149,0.146-0.22c0.297-0.404,0.59-0.814,0.906-1.209c0.422-0.527,0.918-1.006,1.288-1.569
		c0.455-0.692,1.05-1.293,1.371-2.083c0.154-0.379,0.458-0.695,0.688-1.046c0.295-0.449,0.289-0.445-0.084-0.828
		c-0.17-0.174-0.306-0.376-0.475-0.549c-0.173-0.18-0.338-0.402-0.556-0.506c-0.608-0.285-1.235-0.525-1.859-0.77
		c-0.233-0.092-0.458-0.038-0.59,0.167c-0.246,0.37-0.511,0.743-0.676,1.156c-0.322,0.806-0.574,1.638-0.855,2.461
		c-0.03,0.094-0.066,0.192-0.066,0.289c-0.007,1.011-0.392,1.935-0.639,2.896C8.172,24.766,7.923,25.966,7.653,27.133z
		 M65.095,37.096c0,0.218-0.021,0.441,0.002,0.661c0.052,0.485,0.292,0.843,0.763,1.028c0.436,0.165,0.754-0.058,1.043-0.321
		c0.202-0.183,0.398-0.388,0.534-0.622c0.35-0.6,0.678-1.21,0.988-1.828c0.332-0.656,0.596-1.348,0.96-1.984
		c0.396-0.692,0.62-1.438,0.824-2.186c0.075-0.268-0.025-0.354-0.294-0.283c-0.104,0.026-0.211,0.064-0.308,0.118
		c-0.838,0.483-1.696,0.938-2.499,1.469c-0.461,0.308-0.919,0.687-1.227,1.133C65.316,35.11,65.069,36.079,65.095,37.096z"/>
</g>
</svg>
