<?xml version="1.0" encoding="utf-8"?>
<!-- Generator: Adobe Illustrator 16.0.0, SVG Export Plug-In . SVG Version: 6.00 Build 0)  -->
<!DOCTYPE svg PUBLIC "-//W3C//DTD SVG 1.1//EN" "http://www.w3.org/Graphics/SVG/1.1/DTD/svg11.dtd">
<svg version="1.1" id="Layer_1" xmlns="http://www.w3.org/2000/svg" xmlns:xlink="http://www.w3.org/1999/xlink" x="0px" y="0px"
	 width="50px" height="50px" viewBox="0 0 50 50" enable-background="new 0 0 50 50" xml:space="preserve">
<g>
	<path fill="#DBD9D7" d="M25,0C11.193,0,0,11.194,0,25c0,13.807,11.193,25,25,25s25-11.193,25-25C50,11.194,38.807,0,25,0z
		 M35.746,37.284c-0.956,1.26-4.175,2.3-7.09,2.3c-7.255,0-10.948-2.674-10.948-8.336v-7.484h-3.521l-0.124-0.122v-5.759
		l0.081-0.117l0.324-0.108c2.913-0.971,4.785-2.608,5.195-5.986c0.103-0.817,0.786-1.256,1.384-1.256h8.689l0.122,0.124v5.854
		l0.122,0.123h4.622l0.124,0.122v7.007l-0.124,0.123h-4.645l-0.124,0.124v6.94c0.004,0.189,0.013,0.755,0.199,0.755h3.978
		l0.118,0.083l1.809,5.361L35.746,37.284z M33.362,33.13l1.208,3.587l-0.028,0.128c-0.911,0.879-3.104,1.528-4.896,1.559
		l-0.205,0.004c-5.892,0-6.901-4.5-6.901-7.157v-8.554l-0.124-0.124h-3.379l-0.122-0.123l-0.028-3.721l0.077-0.112
		c3.043-1.185,4.744-3.154,5.191-6.798c0.024-0.201,0.191-0.208,0.195-0.208h4.189l0.122,0.123v5.854l0.122,0.123h4.624l0.12,0.123
		v4.619l-0.12,0.123h-4.645l-0.118,0.123v8.149c0.029,1.745,0.869,2.633,2.511,2.633c0.659,0,1.355-0.153,2.047-0.418L33.362,33.13z
		"/>
</g>
</svg>
